<svg width="1061" height="518" viewBox="0 0 1061 518" fill="none" xmlns="http://www.w3.org/2000/svg">
<g clip-path="url(#clip0_172_4)">
<rect width="1061" height="518" fill="black"/>
<ellipse cx="1015.77" cy="192.647" rx="134.772" ry="139.764" transform="rotate(82.1267 1015.77 192.647)" fill="#2E2E2E"/>
<ellipse cx="1015.77" cy="192.647" rx="134.772" ry="139.764" transform="rotate(82.1267 1015.77 192.647)" fill="white"/>
<ellipse cx="1012.96" cy="190.517" rx="87.3525" ry="92.3441" transform="rotate(82.1267 1012.96 190.517)" fill="#F9F9F9"/>
<ellipse cx="1012.96" cy="190.517" rx="87.3525" ry="92.3441" transform="rotate(82.1267 1012.96 190.517)" fill="#2E2E2E"/>
<rect width="151.395" height="56.6205" rx="28.3103" transform="matrix(-0.653618 0.756824 -0.773657 -0.633605 1055.14 183.784)" fill="#2E2E2E"/>
<rect width="151.395" height="56.6205" rx="28.3103" transform="matrix(-0.653618 0.756824 -0.773657 -0.633605 1055.14 183.784)" fill="#FFFCFC"/>
<ellipse cx="45.3946" cy="248.707" rx="134.772" ry="139.764" transform="rotate(-33.323 45.3946 248.707)" fill="#2E2E2E"/>
<ellipse cx="45.3946" cy="248.707" rx="134.772" ry="139.764" transform="rotate(-33.323 45.3946 248.707)" fill="white"/>
<ellipse cx="44.6806" cy="252.163" rx="87.3525" ry="92.3441" transform="rotate(-33.323 44.6806 252.163)" fill="#F9F9F9"/>
<ellipse cx="44.6806" cy="252.163" rx="87.3525" ry="92.3441" transform="rotate(-33.323 44.6806 252.163)" fill="#2E2E2E"/>
<rect width="151.395" height="56.6205" rx="28.3103" transform="matrix(0.964256 0.264972 -0.239668 0.970855 20.4766 216.973)" fill="#2E2E2E"/>
<rect width="151.395" height="56.6205" rx="28.3103" transform="matrix(0.964256 0.264972 -0.239668 0.970855 20.4766 216.973)" fill="#FFFCFC"/>
<ellipse cx="978.908" cy="462.531" rx="134.772" ry="139.764" transform="rotate(82.1267 978.908 462.531)" fill="#2E2E2E"/>
<ellipse cx="978.908" cy="462.531" rx="134.772" ry="139.764" transform="rotate(82.1267 978.908 462.531)" fill="white"/>
<ellipse cx="976.094" cy="460.4" rx="87.3525" ry="92.3441" transform="rotate(82.1267 976.094 460.4)" fill="#F9F9F9"/>
<ellipse cx="976.094" cy="460.4" rx="87.3525" ry="92.3441" transform="rotate(82.1267 976.094 460.4)" fill="#2E2E2E"/>
<rect width="151.395" height="56.6205" rx="28.3103" transform="matrix(-0.653618 0.756824 -0.773657 -0.633605 1018.27 453.667)" fill="#2E2E2E"/>
<rect width="151.395" height="56.6205" rx="28.3103" transform="matrix(-0.653618 0.756824 -0.773657 -0.633605 1018.27 453.667)" fill="#FFFCFC"/>
<ellipse cx="334.772" cy="460.647" rx="134.772" ry="139.764" fill="#2E2E2E"/>
<ellipse cx="334.772" cy="460.647" rx="134.772" ry="139.764" fill="white"/>
<ellipse cx="332.276" cy="463.143" rx="87.3525" ry="92.3441" fill="#F9F9F9"/>
<ellipse cx="332.276" cy="463.143" rx="87.3525" ry="92.3441" fill="#2E2E2E"/>
<rect width="151.395" height="56.6205" rx="28.3103" transform="matrix(0.660155 0.751129 -0.73361 0.67957 331.385 420.442)" fill="#2E2E2E"/>
<rect width="151.395" height="56.6205" rx="28.3103" transform="matrix(0.660155 0.751129 -0.73361 0.67957 331.385 420.442)" fill="#FFFCFC"/>
<ellipse cx="334.772" cy="460.647" rx="134.772" ry="139.764" fill="#2E2E2E"/>
<ellipse cx="334.772" cy="460.647" rx="134.772" ry="139.764" fill="white"/>
<ellipse cx="332.276" cy="463.143" rx="87.3525" ry="92.3441" fill="#F9F9F9"/>
<ellipse cx="332.276" cy="463.143" rx="87.3525" ry="92.3441" fill="#2E2E2E"/>
<rect width="151.395" height="56.6205" rx="28.3103" transform="matrix(0.660155 0.751129 -0.73361 0.67957 331.385 420.442)" fill="#2E2E2E"/>
<rect width="151.395" height="56.6205" rx="28.3103" transform="matrix(0.660155 0.751129 -0.73361 0.67957 331.385 420.442)" fill="#FFFCFC"/>
<ellipse cx="90.0316" cy="470.126" rx="134.772" ry="139.764" transform="rotate(87.7128 90.0316 470.126)" fill="#2E2E2E"/>
<ellipse cx="90.0316" cy="470.126" rx="134.772" ry="139.764" transform="rotate(87.7128 90.0316 470.126)" fill="white"/>
<ellipse cx="87.4383" cy="467.732" rx="87.3525" ry="92.3441" transform="rotate(87.7128 87.4383 467.732)" fill="#F9F9F9"/>
<ellipse cx="87.4383" cy="467.732" rx="87.3525" ry="92.3441" transform="rotate(87.7128 87.4383 467.732)" fill="#2E2E2E"/>
<rect width="151.395" height="56.6205" rx="28.3103" transform="matrix(-0.724185 0.689606 -0.708307 -0.705905 130.07 465.136)" fill="#2E2E2E"/>
<rect width="151.395" height="56.6205" rx="28.3103" transform="matrix(-0.724185 0.689606 -0.708307 -0.705905 130.07 465.136)" fill="#FFFCFC"/>
<ellipse cx="573.578" cy="516.033" rx="111.688" ry="115.824" transform="rotate(69.5226 573.578 516.033)" fill="#2E2E2E"/>
<ellipse cx="573.578" cy="516.033" rx="111.688" ry="115.824" transform="rotate(69.5226 573.578 516.033)" fill="white"/>
<ellipse cx="570.917" cy="514.819" rx="72.3902" ry="76.5268" transform="rotate(69.5226 570.917 514.819)" fill="#F9F9F9"/>
<ellipse cx="570.917" cy="514.819" rx="72.3902" ry="76.5268" transform="rotate(69.5226 570.917 514.819)" fill="#2E2E2E"/>
<rect width="125.463" height="46.9222" rx="23.4611" transform="matrix(-0.472718 0.881214 -0.893273 -0.449514 603.81 501.747)" fill="#2E2E2E"/>
<rect width="125.463" height="46.9222" rx="23.4611" transform="matrix(-0.472718 0.881214 -0.893273 -0.449514 603.81 501.747)" fill="#FFFCFC"/>
<ellipse cx="759.564" cy="478.115" rx="98.7757" ry="102.434" transform="rotate(-166.045 759.564 478.115)" fill="#2E2E2E"/>
<ellipse cx="759.564" cy="478.115" rx="98.7757" ry="102.434" transform="rotate(-166.045 759.564 478.115)" fill="white"/>
<ellipse cx="761.78" cy="476.782" rx="64.0213" ry="67.6796" transform="rotate(-166.045 761.78 476.782)" fill="#F9F9F9"/>
<ellipse cx="761.78" cy="476.782" rx="64.0213" ry="67.6796" transform="rotate(-166.045 761.78 476.782)" fill="#2E2E2E"/>
<rect width="110.959" height="41.4976" rx="20.7488" transform="matrix(-0.459524 -0.888165 0.875846 -0.482591 754.866 507.312)" fill="#2E2E2E"/>
<rect width="110.959" height="41.4976" rx="20.7488" transform="matrix(-0.459524 -0.888165 0.875846 -0.482591 754.866 507.312)" fill="#FFFCFC"/>
</g>
<defs>
<clipPath id="clip0_172_4">
<rect width="1061" height="518" fill="white"/>
</clipPath>
</defs>
</svg>
