<svg width="430" height="210" viewBox="0 0 430 210" fill="none" xmlns="http://www.w3.org/2000/svg">
<g opacity="0.3">
<ellipse cx="27" cy="28" rx="27" ry="28" fill="#2E2E2E"/>
<ellipse cx="27" cy="28" rx="27" ry="28" fill="white"/>
<ellipse cx="26.5" cy="28.5" rx="17.5" ry="18.5" fill="#F9F9F9"/>
<ellipse cx="26.5" cy="28.5" rx="17.5" ry="18.5" fill="#2E2E2E"/>
<rect width="30.3302" height="11.3432" rx="5.67161" transform="matrix(0.660155 0.751129 -0.73361 0.67957 26.3215 19.9453)" fill="#2E2E2E"/>
<rect width="30.3302" height="11.3432" rx="5.67161" transform="matrix(0.660155 0.751129 -0.73361 0.67957 26.3215 19.9453)" fill="#FFFCFC"/>
<ellipse cx="121" cy="28" rx="27" ry="28" fill="#2E2E2E"/>
<ellipse cx="121" cy="28" rx="27" ry="28" fill="white"/>
<ellipse cx="120.5" cy="28.5" rx="17.5" ry="18.5" fill="#F9F9F9"/>
<ellipse cx="120.5" cy="28.5" rx="17.5" ry="18.5" fill="#2E2E2E"/>
<rect width="30.3302" height="11.3432" rx="5.67161" transform="matrix(0.660155 0.751129 -0.73361 0.67957 120.322 19.9453)" fill="#2E2E2E"/>
<rect width="30.3302" height="11.3432" rx="5.67161" transform="matrix(0.660155 0.751129 -0.73361 0.67957 120.322 19.9453)" fill="#FFFCFC"/>
<ellipse cx="215" cy="28" rx="27" ry="28" fill="#2E2E2E"/>
<ellipse cx="215" cy="28" rx="27" ry="28" fill="white"/>
<ellipse cx="214.5" cy="28.5" rx="17.5" ry="18.5" fill="#F9F9F9"/>
<ellipse cx="214.5" cy="28.5" rx="17.5" ry="18.5" fill="#2E2E2E"/>
<rect width="30.3302" height="11.3432" rx="5.67161" transform="matrix(0.660155 0.751129 -0.73361 0.67957 214.322 19.9453)" fill="#2E2E2E"/>
<rect width="30.3302" height="11.3432" rx="5.67161" transform="matrix(0.660155 0.751129 -0.73361 0.67957 214.322 19.9453)" fill="#FFFCFC"/>
<ellipse cx="309" cy="28" rx="27" ry="28" fill="#2E2E2E"/>
<ellipse cx="309" cy="28" rx="27" ry="28" fill="white"/>
<ellipse cx="308.5" cy="28.5" rx="17.5" ry="18.5" fill="#F9F9F9"/>
<ellipse cx="308.5" cy="28.5" rx="17.5" ry="18.5" fill="#2E2E2E"/>
<rect width="30.3302" height="11.3432" rx="5.67161" transform="matrix(0.660155 0.751129 -0.73361 0.67957 308.322 19.9453)" fill="#2E2E2E"/>
<rect width="30.3302" height="11.3432" rx="5.67161" transform="matrix(0.660155 0.751129 -0.73361 0.67957 308.322 19.9453)" fill="#FFFCFC"/>
<ellipse cx="403" cy="28" rx="27" ry="28" fill="#2E2E2E"/>
<ellipse cx="403" cy="28" rx="27" ry="28" fill="white"/>
<ellipse cx="402.5" cy="28.5" rx="17.5" ry="18.5" fill="#F9F9F9"/>
<ellipse cx="402.5" cy="28.5" rx="17.5" ry="18.5" fill="#2E2E2E"/>
<rect width="30.3302" height="11.3432" rx="5.67161" transform="matrix(0.660155 0.751129 -0.73361 0.67957 402.322 19.9453)" fill="#2E2E2E"/>
<rect width="30.3302" height="11.3432" rx="5.67161" transform="matrix(0.660155 0.751129 -0.73361 0.67957 402.322 19.9453)" fill="#FFFCFC"/>
<ellipse cx="27" cy="105" rx="27" ry="28" fill="#2E2E2E"/>
<ellipse cx="27" cy="105" rx="27" ry="28" fill="white"/>
<ellipse cx="26.5" cy="105.5" rx="17.5" ry="18.5" fill="#F9F9F9"/>
<ellipse cx="26.5" cy="105.5" rx="17.5" ry="18.5" fill="#2E2E2E"/>
<rect width="30.3302" height="11.3432" rx="5.67161" transform="matrix(0.660155 0.751129 -0.73361 0.67957 26.3215 96.9453)" fill="#2E2E2E"/>
<rect width="30.3302" height="11.3432" rx="5.67161" transform="matrix(0.660155 0.751129 -0.73361 0.67957 26.3215 96.9453)" fill="#FFFCFC"/>
<ellipse cx="121" cy="105" rx="27" ry="28" fill="#2E2E2E"/>
<ellipse cx="121" cy="105" rx="27" ry="28" fill="white"/>
<ellipse cx="120.5" cy="105.5" rx="17.5" ry="18.5" fill="#F9F9F9"/>
<ellipse cx="120.5" cy="105.5" rx="17.5" ry="18.5" fill="#2E2E2E"/>
<rect width="30.3302" height="11.3432" rx="5.67161" transform="matrix(0.660155 0.751129 -0.73361 0.67957 120.322 96.9453)" fill="#2E2E2E"/>
<rect width="30.3302" height="11.3432" rx="5.67161" transform="matrix(0.660155 0.751129 -0.73361 0.67957 120.322 96.9453)" fill="#FFFCFC"/>
<ellipse cx="215" cy="105" rx="27" ry="28" fill="#2E2E2E"/>
<ellipse cx="215" cy="105" rx="27" ry="28" fill="white"/>
<ellipse cx="214.5" cy="105.5" rx="17.5" ry="18.5" fill="#F9F9F9"/>
<ellipse cx="214.5" cy="105.5" rx="17.5" ry="18.5" fill="#2E2E2E"/>
<rect width="30.3302" height="11.3432" rx="5.67161" transform="matrix(0.660155 0.751129 -0.73361 0.67957 214.322 96.9453)" fill="#2E2E2E"/>
<rect width="30.3302" height="11.3432" rx="5.67161" transform="matrix(0.660155 0.751129 -0.73361 0.67957 214.322 96.9453)" fill="#FFFCFC"/>
<ellipse cx="309" cy="105" rx="27" ry="28" fill="#2E2E2E"/>
<ellipse cx="309" cy="105" rx="27" ry="28" fill="white"/>
<ellipse cx="308.5" cy="105.5" rx="17.5" ry="18.5" fill="#F9F9F9"/>
<ellipse cx="308.5" cy="105.5" rx="17.5" ry="18.5" fill="#2E2E2E"/>
<rect width="30.3302" height="11.3432" rx="5.67161" transform="matrix(0.660155 0.751129 -0.73361 0.67957 308.322 96.9453)" fill="#2E2E2E"/>
<rect width="30.3302" height="11.3432" rx="5.67161" transform="matrix(0.660155 0.751129 -0.73361 0.67957 308.322 96.9453)" fill="#FFFCFC"/>
<ellipse cx="403" cy="105" rx="27" ry="28" fill="#2E2E2E"/>
<ellipse cx="403" cy="105" rx="27" ry="28" fill="white"/>
<ellipse cx="402.5" cy="105.5" rx="17.5" ry="18.5" fill="#F9F9F9"/>
<ellipse cx="402.5" cy="105.5" rx="17.5" ry="18.5" fill="#2E2E2E"/>
<rect width="30.3302" height="11.3432" rx="5.67161" transform="matrix(0.660155 0.751129 -0.73361 0.67957 402.322 96.9453)" fill="#2E2E2E"/>
<rect width="30.3302" height="11.3432" rx="5.67161" transform="matrix(0.660155 0.751129 -0.73361 0.67957 402.322 96.9453)" fill="#FFFCFC"/>
<ellipse cx="27" cy="182" rx="27" ry="28" fill="#2E2E2E"/>
<ellipse cx="27" cy="182" rx="27" ry="28" fill="white"/>
<ellipse cx="26.5" cy="182.5" rx="17.5" ry="18.5" fill="#F9F9F9"/>
<ellipse cx="26.5" cy="182.5" rx="17.5" ry="18.5" fill="#2E2E2E"/>
<rect width="30.3302" height="11.3432" rx="5.67161" transform="matrix(0.660155 0.751129 -0.73361 0.67957 26.3215 173.945)" fill="#2E2E2E"/>
<rect width="30.3302" height="11.3432" rx="5.67161" transform="matrix(0.660155 0.751129 -0.73361 0.67957 26.3215 173.945)" fill="#FFFCFC"/>
<ellipse cx="121" cy="182" rx="27" ry="28" fill="#2E2E2E"/>
<ellipse cx="121" cy="182" rx="27" ry="28" fill="white"/>
<ellipse cx="120.5" cy="182.5" rx="17.5" ry="18.5" fill="#F9F9F9"/>
<ellipse cx="120.5" cy="182.5" rx="17.5" ry="18.5" fill="#2E2E2E"/>
<rect width="30.3302" height="11.3432" rx="5.67161" transform="matrix(0.660155 0.751129 -0.73361 0.67957 120.322 173.945)" fill="#2E2E2E"/>
<rect width="30.3302" height="11.3432" rx="5.67161" transform="matrix(0.660155 0.751129 -0.73361 0.67957 120.322 173.945)" fill="#FFFCFC"/>
<ellipse cx="215" cy="182" rx="27" ry="28" fill="#2E2E2E"/>
<ellipse cx="215" cy="182" rx="27" ry="28" fill="white"/>
<ellipse cx="214.5" cy="182.5" rx="17.5" ry="18.5" fill="#F9F9F9"/>
<ellipse cx="214.5" cy="182.5" rx="17.5" ry="18.5" fill="#2E2E2E"/>
<rect width="30.3302" height="11.3432" rx="5.67161" transform="matrix(0.660155 0.751129 -0.73361 0.67957 214.322 173.945)" fill="#2E2E2E"/>
<rect width="30.3302" height="11.3432" rx="5.67161" transform="matrix(0.660155 0.751129 -0.73361 0.67957 214.322 173.945)" fill="#FFFCFC"/>
<ellipse cx="309" cy="182" rx="27" ry="28" fill="#2E2E2E"/>
<ellipse cx="309" cy="182" rx="27" ry="28" fill="white"/>
<ellipse cx="308.5" cy="182.5" rx="17.5" ry="18.5" fill="#F9F9F9"/>
<ellipse cx="308.5" cy="182.5" rx="17.5" ry="18.5" fill="#2E2E2E"/>
<rect width="30.3302" height="11.3432" rx="5.67161" transform="matrix(0.660155 0.751129 -0.73361 0.67957 308.322 173.945)" fill="#2E2E2E"/>
<rect width="30.3302" height="11.3432" rx="5.67161" transform="matrix(0.660155 0.751129 -0.73361 0.67957 308.322 173.945)" fill="#FFFCFC"/>
<ellipse cx="403" cy="182" rx="27" ry="28" fill="#2E2E2E"/>
<ellipse cx="403" cy="182" rx="27" ry="28" fill="white"/>
<ellipse cx="402.5" cy="182.5" rx="17.5" ry="18.5" fill="#F9F9F9"/>
<ellipse cx="402.5" cy="182.5" rx="17.5" ry="18.5" fill="#2E2E2E"/>
<rect width="30.3302" height="11.3432" rx="5.67161" transform="matrix(0.660155 0.751129 -0.73361 0.67957 402.322 173.945)" fill="#2E2E2E"/>
<rect width="30.3302" height="11.3432" rx="5.67161" transform="matrix(0.660155 0.751129 -0.73361 0.67957 402.322 173.945)" fill="#FFFCFC"/>
</g>
</svg>
