<svg width="402" height="230" viewBox="0 0 402 230" fill="none" xmlns="http://www.w3.org/2000/svg">
<g opacity="0.1">
<ellipse cx="204" cy="202" rx="27" ry="28" fill="#2E2E2E"/>
<ellipse cx="204" cy="115" rx="27" ry="28" fill="#2E2E2E"/>
<ellipse cx="204" cy="202" rx="27" ry="28" fill="#2E2E2E"/>
<ellipse cx="204" cy="115" rx="27" ry="28" fill="#2E2E2E"/>
<ellipse cx="204" cy="115" rx="27" ry="28" fill="#2E2E2E"/>
<ellipse cx="204" cy="28" rx="27" ry="28" fill="#2E2E2E"/>
<ellipse cx="204" cy="115" rx="27" ry="28" fill="#2E2E2E"/>
<ellipse cx="204" cy="28" rx="27" ry="28" fill="#2E2E2E"/>
<ellipse cx="203.5" cy="202.5" rx="17.5" ry="18.5" fill="#F9F9F9"/>
<ellipse cx="203.5" cy="115.5" rx="17.5" ry="18.5" fill="#F9F9F9"/>
<ellipse cx="203.5" cy="202.5" rx="17.5" ry="18.5" fill="#F9F9F9"/>
<ellipse cx="203.5" cy="115.5" rx="17.5" ry="18.5" fill="#F9F9F9"/>
<ellipse cx="203.5" cy="115.5" rx="17.5" ry="18.5" fill="#F9F9F9"/>
<ellipse cx="203.5" cy="28.5" rx="17.5" ry="18.5" fill="#F9F9F9"/>
<ellipse cx="203.5" cy="115.5" rx="17.5" ry="18.5" fill="#F9F9F9"/>
<ellipse cx="203.5" cy="28.5" rx="17.5" ry="18.5" fill="#F9F9F9"/>
<rect width="30.3302" height="11.3432" rx="5.67161" transform="matrix(0.660155 0.751129 -0.73361 0.67957 203.322 193.945)" fill="#2E2E2E"/>
<rect width="30.3302" height="11.3432" rx="5.67161" transform="matrix(0.660155 0.751129 -0.73361 0.67957 203.322 106.945)" fill="#2E2E2E"/>
<rect width="30.3302" height="11.3432" rx="5.67161" transform="matrix(0.660155 0.751129 -0.73361 0.67957 203.322 193.945)" fill="#2E2E2E"/>
<rect width="30.3302" height="11.3432" rx="5.67161" transform="matrix(0.660155 0.751129 -0.73361 0.67957 203.322 106.945)" fill="#2E2E2E"/>
<rect width="30.3302" height="11.3432" rx="5.67161" transform="matrix(0.660155 0.751129 -0.73361 0.67957 203.322 106.945)" fill="#2E2E2E"/>
<rect width="30.3302" height="11.3432" rx="5.67161" transform="matrix(0.660155 0.751129 -0.73361 0.67957 203.322 19.9453)" fill="#2E2E2E"/>
<rect width="30.3302" height="11.3432" rx="5.67161" transform="matrix(0.660155 0.751129 -0.73361 0.67957 203.322 106.945)" fill="#2E2E2E"/>
<rect width="30.3302" height="11.3432" rx="5.67161" transform="matrix(0.660155 0.751129 -0.73361 0.67957 203.322 19.9453)" fill="#2E2E2E"/>
<ellipse cx="110" cy="115" rx="27" ry="28" fill="#2E2E2E"/>
<ellipse cx="110" cy="202" rx="27" ry="28" fill="#2E2E2E"/>
<ellipse cx="27" cy="115" rx="27" ry="28" fill="#2E2E2E"/>
<ellipse cx="27" cy="202" rx="27" ry="28" fill="#2E2E2E"/>
<ellipse cx="110" cy="115" rx="27" ry="28" fill="#2E2E2E"/>
<ellipse cx="110" cy="202" rx="27" ry="28" fill="#2E2E2E"/>
<ellipse cx="27" cy="115" rx="27" ry="28" fill="#2E2E2E"/>
<ellipse cx="27" cy="202" rx="27" ry="28" fill="#2E2E2E"/>
<ellipse cx="110" cy="115" rx="27" ry="28" fill="#2E2E2E"/>
<ellipse cx="110" cy="202" rx="27" ry="28" fill="#2E2E2E"/>
<ellipse cx="27" cy="115" rx="27" ry="28" fill="#2E2E2E"/>
<ellipse cx="27" cy="202" rx="27" ry="28" fill="#2E2E2E"/>
<ellipse cx="110" cy="28" rx="27" ry="28" fill="#2E2E2E"/>
<ellipse cx="110" cy="115" rx="27" ry="28" fill="#2E2E2E"/>
<ellipse cx="27" cy="28" rx="27" ry="28" fill="#2E2E2E"/>
<ellipse cx="27" cy="115" rx="27" ry="28" fill="#2E2E2E"/>
<ellipse cx="110" cy="115" rx="27" ry="28" fill="#2E2E2E"/>
<ellipse cx="110" cy="202" rx="27" ry="28" fill="#2E2E2E"/>
<ellipse cx="27" cy="115" rx="27" ry="28" fill="#2E2E2E"/>
<ellipse cx="27" cy="202" rx="27" ry="28" fill="#2E2E2E"/>
<ellipse cx="110" cy="28" rx="27" ry="28" fill="#2E2E2E"/>
<ellipse cx="110" cy="115" rx="27" ry="28" fill="#2E2E2E"/>
<ellipse cx="27" cy="28" rx="27" ry="28" fill="#2E2E2E"/>
<ellipse cx="27" cy="115" rx="27" ry="28" fill="#2E2E2E"/>
<ellipse cx="109.5" cy="115.5" rx="17.5" ry="18.5" fill="#F9F9F9"/>
<ellipse cx="109.5" cy="202.5" rx="17.5" ry="18.5" fill="#F9F9F9"/>
<ellipse cx="26.5" cy="115.5" rx="17.5" ry="18.5" fill="#F9F9F9"/>
<ellipse cx="26.5" cy="202.5" rx="17.5" ry="18.5" fill="#F9F9F9"/>
<ellipse cx="109.5" cy="115.5" rx="17.5" ry="18.5" fill="#F9F9F9"/>
<ellipse cx="109.5" cy="202.5" rx="17.5" ry="18.5" fill="#F9F9F9"/>
<ellipse cx="26.5" cy="115.5" rx="17.5" ry="18.5" fill="#F9F9F9"/>
<ellipse cx="26.5" cy="202.5" rx="17.5" ry="18.5" fill="#F9F9F9"/>
<ellipse cx="109.5" cy="115.5" rx="17.5" ry="18.5" fill="#F9F9F9"/>
<ellipse cx="109.5" cy="202.5" rx="17.5" ry="18.5" fill="#F9F9F9"/>
<ellipse cx="26.5" cy="115.5" rx="17.5" ry="18.5" fill="#F9F9F9"/>
<ellipse cx="26.5" cy="202.5" rx="17.5" ry="18.5" fill="#F9F9F9"/>
<ellipse cx="109.5" cy="28.5" rx="17.5" ry="18.5" fill="#F9F9F9"/>
<ellipse cx="109.5" cy="115.5" rx="17.5" ry="18.5" fill="#F9F9F9"/>
<ellipse cx="26.5" cy="28.5" rx="17.5" ry="18.5" fill="#F9F9F9"/>
<ellipse cx="26.5" cy="115.5" rx="17.5" ry="18.5" fill="#F9F9F9"/>
<ellipse cx="109.5" cy="115.5" rx="17.5" ry="18.5" fill="#F9F9F9"/>
<ellipse cx="109.5" cy="202.5" rx="17.5" ry="18.5" fill="#F9F9F9"/>
<ellipse cx="26.5" cy="115.5" rx="17.5" ry="18.5" fill="#F9F9F9"/>
<ellipse cx="26.5" cy="202.5" rx="17.5" ry="18.5" fill="#F9F9F9"/>
<ellipse cx="109.5" cy="28.5" rx="17.5" ry="18.5" fill="#F9F9F9"/>
<ellipse cx="109.5" cy="115.5" rx="17.5" ry="18.5" fill="#F9F9F9"/>
<ellipse cx="26.5" cy="28.5" rx="17.5" ry="18.5" fill="#F9F9F9"/>
<ellipse cx="26.5" cy="115.5" rx="17.5" ry="18.5" fill="#F9F9F9"/>
<rect width="30.3302" height="11.3432" rx="5.67161" transform="matrix(0.660155 0.751129 -0.73361 0.67957 109.322 106.945)" fill="#2E2E2E"/>
<rect width="30.3302" height="11.3432" rx="5.67161" transform="matrix(0.660155 0.751129 -0.73361 0.67957 109.322 193.945)" fill="#2E2E2E"/>
<rect width="30.3302" height="11.3432" rx="5.67161" transform="matrix(0.660155 0.751129 -0.73361 0.67957 26.3215 106.945)" fill="#2E2E2E"/>
<rect width="30.3302" height="11.3432" rx="5.67161" transform="matrix(0.660155 0.751129 -0.73361 0.67957 26.3215 193.945)" fill="#2E2E2E"/>
<rect width="30.3302" height="11.3432" rx="5.67161" transform="matrix(0.660155 0.751129 -0.73361 0.67957 109.322 106.945)" fill="#2E2E2E"/>
<rect width="30.3302" height="11.3432" rx="5.67161" transform="matrix(0.660155 0.751129 -0.73361 0.67957 109.322 193.945)" fill="#2E2E2E"/>
<rect width="30.3302" height="11.3432" rx="5.67161" transform="matrix(0.660155 0.751129 -0.73361 0.67957 26.3215 106.945)" fill="#2E2E2E"/>
<rect width="30.3302" height="11.3432" rx="5.67161" transform="matrix(0.660155 0.751129 -0.73361 0.67957 26.3215 193.945)" fill="#2E2E2E"/>
<rect width="30.3302" height="11.3432" rx="5.67161" transform="matrix(0.660155 0.751129 -0.73361 0.67957 109.322 106.945)" fill="#2E2E2E"/>
<rect width="30.3302" height="11.3432" rx="5.67161" transform="matrix(0.660155 0.751129 -0.73361 0.67957 109.322 193.945)" fill="#2E2E2E"/>
<rect width="30.3302" height="11.3432" rx="5.67161" transform="matrix(0.660155 0.751129 -0.73361 0.67957 26.3215 106.945)" fill="#2E2E2E"/>
<rect width="30.3302" height="11.3432" rx="5.67161" transform="matrix(0.660155 0.751129 -0.73361 0.67957 26.3215 193.945)" fill="#2E2E2E"/>
<rect width="30.3302" height="11.3432" rx="5.67161" transform="matrix(0.660155 0.751129 -0.73361 0.67957 109.322 19.9453)" fill="#2E2E2E"/>
<rect width="30.3302" height="11.3432" rx="5.67161" transform="matrix(0.660155 0.751129 -0.73361 0.67957 109.322 106.945)" fill="#2E2E2E"/>
<rect width="30.3302" height="11.3432" rx="5.67161" transform="matrix(0.660155 0.751129 -0.73361 0.67957 26.3215 19.9453)" fill="#2E2E2E"/>
<rect width="30.3302" height="11.3432" rx="5.67161" transform="matrix(0.660155 0.751129 -0.73361 0.67957 26.3215 106.945)" fill="#2E2E2E"/>
<rect width="30.3302" height="11.3432" rx="5.67161" transform="matrix(0.660155 0.751129 -0.73361 0.67957 109.322 106.945)" fill="#2E2E2E"/>
<rect width="30.3302" height="11.3432" rx="5.67161" transform="matrix(0.660155 0.751129 -0.73361 0.67957 109.322 193.945)" fill="#2E2E2E"/>
<rect width="30.3302" height="11.3432" rx="5.67161" transform="matrix(0.660155 0.751129 -0.73361 0.67957 26.3215 106.945)" fill="#2E2E2E"/>
<rect width="30.3302" height="11.3432" rx="5.67161" transform="matrix(0.660155 0.751129 -0.73361 0.67957 26.3215 193.945)" fill="#2E2E2E"/>
<rect width="30.3302" height="11.3432" rx="5.67161" transform="matrix(0.660155 0.751129 -0.73361 0.67957 109.322 19.9453)" fill="#2E2E2E"/>
<rect width="30.3302" height="11.3432" rx="5.67161" transform="matrix(0.660155 0.751129 -0.73361 0.67957 109.322 106.945)" fill="#2E2E2E"/>
<rect width="30.3302" height="11.3432" rx="5.67161" transform="matrix(0.660155 0.751129 -0.73361 0.67957 26.3215 19.9453)" fill="#2E2E2E"/>
<rect width="30.3302" height="11.3432" rx="5.67161" transform="matrix(0.660155 0.751129 -0.73361 0.67957 26.3215 106.945)" fill="#2E2E2E"/>
<ellipse cx="298" cy="202" rx="27" ry="28" fill="#2E2E2E"/>
<ellipse cx="375" cy="202" rx="27" ry="28" fill="#2E2E2E"/>
<ellipse cx="298" cy="115" rx="27" ry="28" fill="#2E2E2E"/>
<ellipse cx="375" cy="115" rx="27" ry="28" fill="#2E2E2E"/>
<ellipse cx="298" cy="202" rx="27" ry="28" fill="#2E2E2E"/>
<ellipse cx="375" cy="202" rx="27" ry="28" fill="#2E2E2E"/>
<ellipse cx="298" cy="115" rx="27" ry="28" fill="#2E2E2E"/>
<ellipse cx="375" cy="115" rx="27" ry="28" fill="#2E2E2E"/>
<ellipse cx="298" cy="115" rx="27" ry="28" fill="#2E2E2E"/>
<ellipse cx="375" cy="115" rx="27" ry="28" fill="#2E2E2E"/>
<ellipse cx="298" cy="28" rx="27" ry="28" fill="#2E2E2E"/>
<ellipse cx="375" cy="28" rx="27" ry="28" fill="#2E2E2E"/>
<ellipse cx="298" cy="115" rx="27" ry="28" fill="#2E2E2E"/>
<ellipse cx="375" cy="115" rx="27" ry="28" fill="#2E2E2E"/>
<ellipse cx="298" cy="28" rx="27" ry="28" fill="#2E2E2E"/>
<ellipse cx="375" cy="28" rx="27" ry="28" fill="#2E2E2E"/>
<ellipse cx="297.5" cy="202.5" rx="17.5" ry="18.5" fill="#F9F9F9"/>
<ellipse cx="374.5" cy="202.5" rx="17.5" ry="18.5" fill="#F9F9F9"/>
<ellipse cx="297.5" cy="115.5" rx="17.5" ry="18.5" fill="#F9F9F9"/>
<ellipse cx="374.5" cy="115.5" rx="17.5" ry="18.5" fill="#F9F9F9"/>
<ellipse cx="297.5" cy="202.5" rx="17.5" ry="18.5" fill="#F9F9F9"/>
<ellipse cx="374.5" cy="202.5" rx="17.5" ry="18.5" fill="#F9F9F9"/>
<ellipse cx="297.5" cy="115.5" rx="17.5" ry="18.5" fill="#F9F9F9"/>
<ellipse cx="374.5" cy="115.5" rx="17.5" ry="18.5" fill="#F9F9F9"/>
<ellipse cx="297.5" cy="115.5" rx="17.5" ry="18.5" fill="#F9F9F9"/>
<ellipse cx="374.5" cy="115.5" rx="17.5" ry="18.5" fill="#F9F9F9"/>
<ellipse cx="297.5" cy="28.5" rx="17.5" ry="18.5" fill="#F9F9F9"/>
<ellipse cx="374.5" cy="28.5" rx="17.5" ry="18.5" fill="#F9F9F9"/>
<ellipse cx="297.5" cy="115.5" rx="17.5" ry="18.5" fill="#F9F9F9"/>
<ellipse cx="374.5" cy="115.5" rx="17.5" ry="18.5" fill="#F9F9F9"/>
<ellipse cx="297.5" cy="28.5" rx="17.5" ry="18.5" fill="#F9F9F9"/>
<ellipse cx="374.5" cy="28.5" rx="17.5" ry="18.5" fill="#F9F9F9"/>
<rect width="30.3302" height="11.3432" rx="5.67161" transform="matrix(0.660155 0.751129 -0.73361 0.67957 297.322 193.945)" fill="#2E2E2E"/>
<rect width="30.3302" height="11.3432" rx="5.67161" transform="matrix(0.660155 0.751129 -0.73361 0.67957 374.322 193.945)" fill="#2E2E2E"/>
<rect width="30.3302" height="11.3432" rx="5.67161" transform="matrix(0.660155 0.751129 -0.73361 0.67957 297.322 106.945)" fill="#2E2E2E"/>
<rect width="30.3302" height="11.3432" rx="5.67161" transform="matrix(0.660155 0.751129 -0.73361 0.67957 374.322 106.945)" fill="#2E2E2E"/>
<rect width="30.3302" height="11.3432" rx="5.67161" transform="matrix(0.660155 0.751129 -0.73361 0.67957 297.322 193.945)" fill="#2E2E2E"/>
<rect width="30.3302" height="11.3432" rx="5.67161" transform="matrix(0.660155 0.751129 -0.73361 0.67957 374.322 193.945)" fill="#2E2E2E"/>
<rect width="30.3302" height="11.3432" rx="5.67161" transform="matrix(0.660155 0.751129 -0.73361 0.67957 297.322 106.945)" fill="#2E2E2E"/>
<rect width="30.3302" height="11.3432" rx="5.67161" transform="matrix(0.660155 0.751129 -0.73361 0.67957 374.322 106.945)" fill="#2E2E2E"/>
<rect width="30.3302" height="11.3432" rx="5.67161" transform="matrix(0.660155 0.751129 -0.73361 0.67957 297.322 106.945)" fill="#2E2E2E"/>
<rect width="30.3302" height="11.3432" rx="5.67161" transform="matrix(0.660155 0.751129 -0.73361 0.67957 374.322 106.945)" fill="#2E2E2E"/>
<rect width="30.3302" height="11.3432" rx="5.67161" transform="matrix(0.660155 0.751129 -0.73361 0.67957 297.322 19.9453)" fill="#2E2E2E"/>
<rect width="30.3302" height="11.3432" rx="5.67161" transform="matrix(0.660155 0.751129 -0.73361 0.67957 374.322 19.9453)" fill="#2E2E2E"/>
<rect width="30.3302" height="11.3432" rx="5.67161" transform="matrix(0.660155 0.751129 -0.73361 0.67957 297.322 106.945)" fill="#2E2E2E"/>
<rect width="30.3302" height="11.3432" rx="5.67161" transform="matrix(0.660155 0.751129 -0.73361 0.67957 374.322 106.945)" fill="#2E2E2E"/>
<rect width="30.3302" height="11.3432" rx="5.67161" transform="matrix(0.660155 0.751129 -0.73361 0.67957 297.322 19.9453)" fill="#2E2E2E"/>
<rect width="30.3302" height="11.3432" rx="5.67161" transform="matrix(0.660155 0.751129 -0.73361 0.67957 374.322 19.9453)" fill="#2E2E2E"/>
</g>
</svg>
