<svg width="623" height="354" viewBox="0 0 623 354" fill="none" xmlns="http://www.w3.org/2000/svg">
<path d="M215.492 88.9869L213.506 87.6761L214.757 83.1004L216.924 83.6882L215.492 88.9869ZM208.498 106.111L210.587 107.028L208.879 113.223L206.689 112.656L208.498 106.111ZM219.749 90.4914L217.603 89.9265L219.111 84.3431L221.279 84.9309L219.749 90.4914ZM212.704 107.791L214.872 108.378L213.216 114.354L211.025 113.788L212.704 107.791ZM224.465 90.3321L222.018 90.7291L223.422 85.5842L225.637 86.0853L224.465 90.3321ZM217.065 108.857L219.357 109.073L217.597 115.488L215.406 114.921L217.065 108.857ZM221.725 67.2799C218.31 67.155 215.351 68.2556 212.848 70.5817C210.346 72.9077 209.032 75.7785 208.907 79.1939C208.782 82.6093 209.883 85.5683 212.209 88.0709C214.535 90.5735 217.406 91.8872 220.821 92.0121C224.237 92.137 227.196 91.0364 229.698 88.7103C232.201 86.3843 233.515 83.5135 233.639 80.0981C233.764 76.6827 232.664 73.7237 230.338 71.2211C228.012 68.7185 225.141 67.4048 221.725 67.2799ZM207.938 73.6526C208.741 71.854 209.867 70.281 211.317 68.9336C212.766 67.5862 214.41 66.5849 216.247 65.9298C218.099 65.2604 219.953 64.9597 221.808 65.0275C223.663 65.0953 225.482 65.523 227.267 66.3106C229.065 67.1134 230.638 68.2396 231.986 69.6893C233.333 71.139 234.334 72.7824 234.99 74.6195C235.659 76.4719 235.96 78.3256 235.892 80.1805C235.824 82.0354 235.389 83.8621 234.586 85.6607C233.798 87.4451 232.68 89.011 231.23 90.3584C229.78 91.7058 228.129 92.7142 226.277 93.3835C224.44 94.0387 222.594 94.3323 220.739 94.2645C218.884 94.1967 217.057 93.7614 215.259 92.9585C213.474 92.171 211.908 91.0524 210.561 89.6027C209.213 88.153 208.205 86.502 207.536 84.6496C206.881 82.8124 206.587 80.9664 206.655 79.1115C206.723 77.2566 207.15 75.4369 207.938 73.6526ZM217.52 63.1681C214.606 63.8281 212.028 65.2006 209.785 67.2855C207.542 69.3705 205.984 71.8417 205.113 74.6991C204.257 77.5718 204.151 80.472 204.795 83.3996C205.455 86.313 206.828 88.8913 208.913 91.1345C210.998 93.3777 213.469 94.9348 216.326 95.8058C219.199 96.6626 222.092 96.761 225.006 96.101C227.933 95.4562 230.519 94.0914 232.762 92.0064C235.005 89.9215 236.555 87.4427 237.412 84.57C238.283 81.7125 238.388 78.8271 237.728 75.9137C237.084 72.9861 235.719 70.4007 233.634 68.1575C231.549 65.9143 229.07 64.3643 226.197 63.5075C223.34 62.6365 220.447 62.5233 217.52 63.1681ZM202.97 74.0459C203.959 70.7947 205.72 67.9919 208.253 65.6375C210.786 63.2831 213.71 61.7316 217.025 60.983C220.339 60.2345 223.622 60.3545 226.873 61.3431C230.125 62.3317 232.927 64.0926 235.282 66.6257C237.636 69.1588 239.188 72.0827 239.936 75.3974C240.685 78.7121 240.565 81.995 239.576 85.2461C238.588 88.4973 236.827 91.3001 234.294 93.6545C231.76 96.0089 228.837 97.5604 225.522 98.309C222.207 99.0575 218.924 98.9375 215.673 97.9489C212.422 96.9603 209.619 95.1994 207.265 92.6663C204.91 90.1331 203.359 87.2092 202.61 83.8946C201.862 80.5799 201.982 77.297 202.97 74.0459ZM213.959 59.5663C211.255 60.5436 208.842 62.018 206.721 63.9894C204.6 65.9609 202.953 68.2593 201.781 70.8846C200.609 73.5099 199.967 76.1693 199.853 78.8628C199.77 81.5574 200.216 84.2567 201.194 86.9606C202.171 89.6644 203.645 92.0769 205.617 94.1981C207.588 96.3192 209.887 97.9658 212.512 99.1379C215.137 100.31 217.79 100.945 220.469 101.043C223.178 101.142 225.884 100.703 228.588 99.7256C231.292 98.7484 233.704 97.274 235.825 95.3026C237.946 93.3311 239.593 91.0327 240.765 88.4074C241.937 85.7821 242.565 83.1221 242.649 80.4275C242.762 77.734 242.33 75.0353 241.353 72.3314C240.376 69.6275 238.901 67.215 236.93 65.0939C234.958 62.9728 232.66 61.3262 230.035 60.1541C227.409 58.982 224.742 58.3464 222.034 58.2474C219.354 58.1494 216.663 58.5891 213.959 59.5663ZM198.663 72.7164C199.886 68.7073 202.061 65.2489 205.189 62.3414C208.318 59.4338 211.926 57.5167 216.013 56.59C220.115 55.6786 224.171 55.8343 228.18 57.057C232.204 58.2655 235.67 60.4339 238.578 63.5621C241.485 66.6904 243.395 70.3055 244.306 74.4074C245.233 78.4951 245.085 82.5435 243.862 86.5527C242.654 90.5771 240.485 94.043 237.357 96.9506C234.229 99.8582 230.614 101.768 226.512 102.679C222.424 103.606 218.368 103.465 214.344 102.256C210.335 101.034 206.876 98.8581 203.969 95.7299C201.061 92.6016 199.144 88.9936 198.217 84.9059C197.306 80.804 197.454 76.7408 198.663 72.7164ZM212.388 55.3519C209.131 56.53 206.221 58.3105 203.658 60.6933C201.094 63.0761 199.098 65.8556 197.67 69.0317C196.271 72.2089 195.512 75.4316 195.393 78.6997C195.273 81.9679 195.795 85.2374 196.958 88.5083C198.15 91.7802 199.938 94.698 202.321 97.2617C204.703 99.8253 207.476 101.814 210.638 103.226C213.829 104.64 217.059 105.407 220.327 105.526C223.595 105.646 226.858 105.117 230.114 103.938C233.4 102.761 236.325 100.981 238.889 98.5987C241.453 96.2159 243.434 93.4359 244.832 90.2587C246.26 87.0826 247.034 83.8604 247.154 80.5922C247.273 77.3241 246.737 74.054 245.544 70.7821C244.382 67.5112 242.609 64.594 240.226 62.0303C237.843 59.4667 235.056 57.4779 231.865 56.064C228.703 54.6512 225.488 53.885 222.22 53.7655C218.951 53.646 215.674 54.1748 212.388 55.3519ZM195.625 68.1167C197.166 64.6646 199.333 61.6408 202.126 59.0453C204.918 56.4497 208.085 54.5164 211.625 53.2455C215.194 51.9756 218.746 51.4052 222.279 51.5344C225.842 51.6646 229.342 52.4928 232.78 54.0189C236.247 55.5461 239.278 57.706 241.874 60.4985C244.47 63.2911 246.395 66.4645 247.651 70.0188C248.936 73.5742 249.506 77.1256 249.362 80.673C249.247 84.2214 248.419 87.7217 246.877 91.1737C245.366 94.6268 243.213 97.6512 240.421 100.247C237.628 102.842 234.447 104.775 230.878 106.045C227.337 107.316 223.786 107.886 220.223 107.756C216.69 107.627 213.198 106.792 209.746 105.25C206.292 103.738 203.268 101.586 200.673 98.7935C198.077 96.0009 196.144 92.8198 194.874 89.2503C193.603 85.7101 193.025 82.1658 193.14 78.6174C193.285 75.07 194.113 71.5698 195.625 68.1167ZM266.321 132.703L287.563 112.96L289.095 114.608L267.853 134.351C265.533 136.507 262.699 137.435 259.349 137.136C255.998 136.836 253.132 135.405 250.749 132.841C248.366 130.278 247.148 127.314 247.094 123.951C247.04 120.588 248.173 117.829 250.493 115.673L271.734 95.93L273.266 97.5781L252.024 117.321C250.163 119.052 249.263 121.281 249.325 124.011C249.402 126.756 250.426 129.188 252.397 131.31C254.369 133.431 256.713 134.622 259.431 134.883C262.163 135.16 264.459 134.433 266.321 132.703ZM269.385 135.999L290.626 116.256L292.158 117.904L270.916 137.647C269.329 139.122 267.499 140.198 265.425 140.874C263.367 141.536 261.286 141.791 259.184 141.641C257.081 141.49 254.994 140.927 252.922 139.952C250.864 138.963 249.042 137.614 247.453 135.905C245.865 134.196 244.652 132.279 243.816 130.156C242.995 128.018 242.586 125.895 242.589 123.787C242.593 121.679 243 119.623 243.81 117.618C244.636 115.599 245.842 113.852 247.429 112.377L268.671 92.6339L270.202 94.2819L248.961 114.025C247.145 115.713 245.912 117.768 245.264 120.192C244.644 122.616 244.665 125.086 245.324 127.601C245.998 130.132 247.257 132.389 249.101 134.373C250.945 136.357 253.097 137.77 255.558 138.611C258.032 139.468 260.494 139.669 262.943 139.213C265.422 138.758 267.569 137.687 269.385 135.999ZM272.448 139.295L293.69 119.552L295.222 121.2L273.98 140.943C271.951 142.83 269.608 144.211 266.952 145.087C264.325 145.964 261.681 146.317 259.019 146.145C256.357 145.974 253.715 145.273 251.092 144.042C248.468 142.811 246.157 141.12 244.157 138.969C242.157 136.817 240.639 134.388 239.603 131.682C238.567 128.976 238.061 126.289 238.085 123.622C238.108 120.955 238.646 118.336 239.699 115.765C240.78 113.195 242.336 110.967 244.365 109.081L265.607 89.3378L267.139 90.9858L245.897 110.729C243.486 112.97 241.846 115.689 240.978 118.885C240.124 122.068 240.109 125.31 240.931 128.613C241.784 131.917 243.408 134.858 245.805 137.437C248.202 140.016 251.01 141.843 254.228 142.919C257.476 143.996 260.718 144.225 263.954 143.606C267.206 142.973 270.037 141.536 272.448 139.295ZM275.512 142.591L296.754 122.848L298.285 124.496L277.044 144.24C273.748 147.303 269.887 149.285 265.461 150.184C261.05 151.07 256.645 150.798 252.246 149.369C247.875 147.942 244.081 145.496 240.861 142.032C237.641 138.568 235.472 134.597 234.353 130.119C233.264 125.642 233.322 121.237 234.527 116.903C235.747 112.554 238.006 108.848 241.302 105.785L262.543 86.0416L264.075 87.6897L242.834 107.433C240.59 109.518 238.871 111.983 237.676 114.829C236.482 117.674 235.867 120.578 235.832 123.54C235.813 126.487 236.368 129.456 237.497 132.445C238.64 135.45 240.311 138.135 242.509 140.5C244.707 142.866 247.256 144.72 250.155 146.065C253.069 147.424 255.996 148.202 258.937 148.398C261.893 148.58 264.834 148.179 267.759 147.195C270.684 146.211 273.269 144.676 275.512 142.591ZM311.391 138.596L312.922 140.244L275.017 175.476L273.485 173.828L311.391 138.596ZM308.327 135.3L309.859 136.948L271.954 172.18L270.422 170.532L308.327 135.3ZM305.263 132.004L306.795 133.652L268.89 168.884L267.358 167.236L305.263 132.004ZM302.2 128.708L303.732 130.356L265.826 165.587L264.295 163.939L302.2 128.708ZM315.773 143.312L317.433 145.097L294.853 192.365L343.644 173.297L345.282 175.06L293.462 195.321L291.803 193.536L315.773 143.312ZM301.937 187.914L298.959 188.933L319.071 146.86L320.709 148.622L301.937 187.914ZM308.084 185.485L305.01 186.722L322.369 150.408L324.028 152.193L308.084 185.485ZM314.279 182.97L311.159 184.249L325.666 153.955L327.304 155.718L314.279 182.97ZM353.515 183.918L355.175 185.703L303.334 205.942L301.696 204.179L353.515 183.918ZM350.239 180.393L351.877 182.156L300.036 202.394L298.398 200.632L350.239 180.393ZM346.92 176.822L348.579 178.608L296.739 198.846L295.101 197.084L346.92 176.822ZM327.736 232.197L326.205 230.548L364.11 195.317L365.642 196.965L327.736 232.197ZM324.673 228.9L323.141 227.252L361.046 192.021L362.578 193.669L324.673 228.9ZM321.609 225.604L320.077 223.956L357.983 188.725L359.515 190.373L321.609 225.604ZM339.04 227.834L355.337 245.367L353.689 246.899L337.392 229.365L335.744 230.897L352.041 248.431L350.393 249.963L334.096 232.429L332.448 233.961L348.745 251.494L347.097 253.026L329.268 233.845L367.174 198.613L385.002 217.795L383.354 219.327L367.057 201.793L365.409 203.325L381.706 220.858L380.058 222.39L363.761 204.857L362.113 206.388L378.41 223.922L376.762 225.454L360.465 207.92L353.873 214.047L362.234 223.043L360.586 224.575L352.225 215.579L350.577 217.111L358.938 226.107L357.29 227.639L348.929 218.643L347.281 220.175L355.642 229.17L353.994 230.702L345.633 221.706L339.04 227.834ZM381.318 252.022L390.552 261.956C391.956 263.467 393.628 264.287 395.569 264.417C397.525 264.562 399.403 263.798 401.203 262.124C402.531 260.89 403.211 259.235 403.242 257.157C403.289 255.066 402.66 253.318 401.356 251.914L388.208 237.768L358.543 265.341L357.011 263.693L388.324 234.589L403.004 250.383C404.734 252.244 405.564 254.53 405.495 257.24C405.44 259.935 404.521 262.113 402.735 263.772C400.538 265.815 398.137 266.766 395.533 266.627C392.929 266.487 390.719 265.441 388.904 263.488L379.67 253.554L381.318 252.022ZM378.022 255.086L387.256 265.02C389.468 267.4 392.2 268.672 395.452 268.835C398.719 268.984 401.658 267.846 404.267 265.421C406.51 263.336 407.663 260.629 407.726 257.299C407.818 253.971 406.793 251.155 404.652 248.851L388.44 231.409L355.479 262.045L353.947 260.397L388.556 228.229L406.3 247.319C407.988 249.135 409.104 251.269 409.648 253.721C410.206 256.189 410.139 258.626 409.447 261.033C408.77 263.426 407.554 265.438 405.799 267.069C402.793 269.863 399.324 271.181 395.394 271.022C391.494 270.865 388.231 269.375 385.607 266.551L376.374 256.617L378.022 255.086ZM374.726 258.149L383.959 268.083C385.945 270.22 388.315 271.714 391.07 272.567C393.825 273.419 396.652 273.522 399.55 272.877C402.463 272.217 405.057 270.83 407.331 268.717C409.391 266.802 410.81 264.458 411.59 261.686C412.399 258.915 412.487 256.102 411.854 253.249C411.221 250.396 409.919 247.908 407.948 245.787L388.673 225.049L352.415 258.749L350.884 257.101L388.789 221.869L409.596 244.255C411.823 246.651 413.297 249.476 414.018 252.731C414.754 255.972 414.659 259.174 413.733 262.339C412.836 265.505 411.212 268.18 408.862 270.365C406.146 272.889 403.212 274.522 400.06 275.261C396.922 276.016 393.844 275.933 390.826 275.012L382.285 290.886L380.669 289.146L388.601 274.179C387.79 273.795 387.189 273.486 386.8 273.251L379.137 287.498L377.52 285.758L384.879 271.964C384.721 271.855 384.213 271.417 383.357 270.648L375.988 284.11L374.371 282.371L381.737 268.997L380.354 267.509L372.839 280.723L371.222 278.983L378.716 265.747L373.078 259.681L374.726 258.149ZM361.606 268.637L360.074 266.989L388.091 240.948L399.708 253.446C400.658 254.469 401.122 255.672 401.101 257.057C401.109 258.443 400.633 259.583 399.672 260.476C397.016 262.944 394.526 262.927 392.2 260.424L382.966 250.49L384.614 248.958L393.848 258.892C394.458 259.549 395.101 259.904 395.777 259.958C396.482 260.013 397.27 259.637 398.14 258.828C398.674 258.332 398.925 257.715 398.893 256.976C398.89 256.239 398.613 255.573 398.059 254.978L387.975 244.128L361.606 268.637Z" fill="white" fill-opacity="0.45"/>
<path d="M414.492 49.9869L412.506 48.6761L413.757 44.1004L415.924 44.6882L414.492 49.9869ZM407.498 67.1111L409.587 68.0278L407.879 74.223L405.689 73.6564L407.498 67.1111ZM418.749 51.4914L416.603 50.9265L418.111 45.3431L420.279 45.9309L418.749 51.4914ZM411.704 68.7906L413.872 69.3785L412.216 75.3545L410.025 74.7879L411.704 68.7906ZM423.465 51.3321L421.018 51.7291L422.422 46.5842L424.637 47.0853L423.465 51.3321ZM416.065 69.8567L418.357 70.0731L416.597 76.4876L414.406 75.921L416.065 69.8567ZM420.725 28.2799C417.31 28.155 414.351 29.2556 411.848 31.5817C409.346 33.9077 408.032 36.7785 407.907 40.1939C407.782 43.6093 408.883 46.5683 411.209 49.0709C413.535 51.5735 416.406 52.8872 419.821 53.0121C423.237 53.137 426.196 52.0364 428.698 49.7103C431.201 47.3843 432.515 44.5135 432.639 41.0981C432.764 37.6827 431.664 34.7237 429.338 32.2211C427.012 29.7185 424.141 28.4048 420.725 28.2799ZM406.938 34.6526C407.741 32.854 408.867 31.281 410.317 29.9336C411.766 28.5862 413.41 27.5849 415.247 26.9298C417.099 26.2604 418.953 25.9597 420.808 26.0275C422.663 26.0953 424.482 26.523 426.267 27.3106C428.065 28.1134 429.638 29.2396 430.986 30.6893C432.333 32.139 433.334 33.7824 433.99 35.6195C434.659 37.4719 434.96 39.3256 434.892 41.1805C434.824 43.0354 434.389 44.8621 433.586 46.6607C432.798 48.4451 431.68 50.011 430.23 51.3584C428.78 52.7058 427.129 53.7142 425.277 54.3835C423.44 55.0387 421.594 55.3323 419.739 55.2645C417.884 55.1967 416.057 54.7614 414.259 53.9585C412.474 53.171 410.908 52.0524 409.561 50.6027C408.213 49.153 407.205 47.502 406.536 45.6496C405.881 43.8124 405.587 41.9664 405.655 40.1115C405.723 38.2566 406.15 36.4369 406.938 34.6526ZM416.52 24.1681C413.606 24.8281 411.028 26.2006 408.785 28.2855C406.542 30.3705 404.984 32.8417 404.113 35.6991C403.257 38.5718 403.151 41.472 403.795 44.3996C404.455 47.313 405.828 49.8913 407.913 52.1345C409.998 54.3777 412.469 55.9348 415.326 56.8058C418.199 57.6626 421.092 57.761 424.006 57.101C426.933 56.4562 429.519 55.0914 431.762 53.0064C434.005 50.9215 435.555 48.4427 436.412 45.57C437.283 42.7125 437.388 39.8271 436.728 36.9137C436.084 33.9861 434.719 31.4007 432.634 29.1575C430.549 26.9143 428.07 25.3643 425.197 24.5075C422.34 23.6365 419.447 23.5233 416.52 24.1681ZM401.97 35.0459C402.959 31.7947 404.72 28.9919 407.253 26.6375C409.786 24.2831 412.71 22.7316 416.025 21.983C419.339 21.2345 422.622 21.3545 425.873 22.3431C429.125 23.3317 431.927 25.0926 434.282 27.6257C436.636 30.1588 438.188 33.0827 438.936 36.3974C439.685 39.7121 439.565 42.995 438.576 46.2461C437.588 49.4973 435.827 52.3001 433.294 54.6545C430.76 57.0089 427.837 58.5604 424.522 59.309C421.207 60.0575 417.924 59.9375 414.673 58.9489C411.422 57.9603 408.619 56.1994 406.265 53.6663C403.91 51.1331 402.359 48.2092 401.61 44.8946C400.862 41.5799 400.982 38.297 401.97 35.0459ZM412.959 20.5663C410.255 21.5436 407.842 23.018 405.721 24.9894C403.6 26.9609 401.953 29.2593 400.781 31.8846C399.609 34.5099 398.967 37.1693 398.853 39.8628C398.77 42.5574 399.216 45.2567 400.194 47.9606C401.171 50.6644 402.645 53.0769 404.617 55.1981C406.588 57.3192 408.887 58.9658 411.512 60.1379C414.137 61.31 416.79 61.945 419.469 62.043C422.178 62.142 424.884 61.7029 427.588 60.7256C430.292 59.7484 432.704 58.274 434.825 56.3026C436.946 54.3311 438.593 52.0327 439.765 49.4074C440.937 46.7821 441.565 44.1221 441.649 41.4275C441.762 38.734 441.33 36.0353 440.353 33.3314C439.376 30.6275 437.901 28.215 435.93 26.0939C433.958 23.9728 431.66 22.3262 429.035 21.1541C426.409 19.982 423.742 19.3464 421.034 19.2474C418.354 19.1494 415.663 19.5891 412.959 20.5663ZM397.663 33.7164C398.886 29.7073 401.061 26.2489 404.189 23.3414C407.318 20.4338 410.926 18.5167 415.013 17.59C419.115 16.6786 423.171 16.8343 427.18 18.057C431.204 19.2655 434.67 21.4339 437.578 24.5621C440.485 27.6904 442.395 31.3055 443.306 35.4074C444.233 39.4951 444.085 43.5435 442.862 47.5527C441.654 51.5771 439.485 55.043 436.357 57.9506C433.229 60.8582 429.614 62.7677 425.512 63.6791C421.424 64.6057 417.368 64.4648 413.344 63.2563C409.335 62.0336 405.876 59.8581 402.969 56.7299C400.061 53.6016 398.144 49.9936 397.217 45.9059C396.306 41.804 396.454 37.7408 397.663 33.7164ZM411.388 16.3519C408.131 17.53 405.221 19.3105 402.658 21.6933C400.094 24.0761 398.098 26.8556 396.67 30.0317C395.271 33.2089 394.512 36.4316 394.393 39.6997C394.273 42.9679 394.795 46.2374 395.958 49.5083C397.15 52.7802 398.938 55.698 401.321 58.2617C403.703 60.8253 406.476 62.8135 409.638 64.2264C412.829 65.6403 416.059 66.407 419.327 66.5265C422.595 66.646 425.858 66.1166 429.114 64.9385C432.4 63.7614 435.325 61.9815 437.889 59.5987C440.453 57.2159 442.434 54.4359 443.832 51.2587C445.26 48.0826 446.034 44.8604 446.154 41.5922C446.273 38.3241 445.737 35.054 444.544 31.7821C443.382 28.5112 441.609 25.594 439.226 23.0303C436.843 20.4667 434.056 18.4779 430.865 17.064C427.703 15.6512 424.488 14.885 421.22 14.7655C417.951 14.646 414.674 15.1748 411.388 16.3519ZM394.625 29.1167C396.166 25.6646 398.333 22.6408 401.126 20.0453C403.918 17.4497 407.085 15.5164 410.625 14.2455C414.194 12.9756 417.746 12.4052 421.279 12.5344C424.842 12.6646 428.342 13.4928 431.78 15.0189C435.247 16.5461 438.278 18.706 440.874 21.4985C443.47 24.2911 445.395 27.4645 446.651 31.0188C447.936 34.5742 448.506 38.1256 448.362 41.673C448.247 45.2214 447.419 48.7217 445.877 52.1737C444.366 55.6268 442.213 58.6512 439.421 61.2467C436.628 63.8423 433.447 65.775 429.878 67.0449C426.337 68.3159 422.786 68.8863 419.223 68.756C415.69 68.6268 412.198 67.7915 408.746 66.2502C405.292 64.7382 402.268 62.586 399.673 59.7935C397.077 57.0009 395.144 53.8198 393.874 50.2503C392.603 46.7101 392.025 43.1658 392.14 39.6174C392.285 36.07 393.113 32.5698 394.625 29.1167ZM465.321 93.7031L486.563 73.9599L488.095 75.608L466.853 95.3512C464.533 97.507 461.699 98.4353 458.349 98.1359C454.998 97.8365 452.132 96.405 449.749 93.8413C447.366 91.2777 446.148 88.3144 446.094 84.9514C446.04 81.5884 447.173 78.829 449.493 76.6732L470.734 56.93L472.266 58.5781L451.024 78.3212C449.163 80.0516 448.263 82.2815 448.325 85.0109C448.402 87.7555 449.426 90.1884 451.397 92.3095C453.369 94.4307 455.713 95.622 458.431 95.8835C461.163 96.1603 463.459 95.4335 465.321 93.7031ZM468.385 96.9992L489.626 77.2561L491.158 78.9041L469.916 98.6473C468.329 100.122 466.499 101.198 464.425 101.874C462.367 102.536 460.286 102.791 458.184 102.641C456.081 102.49 453.994 101.927 451.922 100.952C449.864 99.9632 448.042 98.614 446.453 96.9049C444.865 95.1958 443.652 93.2794 442.816 91.1555C441.995 89.0175 441.586 86.8946 441.589 84.7867C441.593 82.6788 442 80.6226 442.81 78.6179C443.636 76.599 444.842 74.8521 446.429 73.377L467.671 53.6339L469.202 55.2819L447.961 75.0251C446.145 76.7129 444.912 78.7685 444.264 81.1918C443.644 83.6162 443.665 86.0861 444.324 88.6015C444.998 91.1321 446.257 93.3894 448.101 95.3731C449.945 97.3569 452.097 98.7697 454.558 99.6114C457.032 100.468 459.494 100.669 461.943 100.213C464.422 99.7583 466.569 98.687 468.385 96.9992ZM471.448 100.295L492.69 80.5522L494.222 82.2002L472.98 101.943C470.951 103.83 468.608 105.211 465.952 106.087C463.325 106.964 460.681 107.317 458.019 107.145C455.357 106.974 452.715 106.273 450.092 105.042C447.468 103.811 445.157 102.12 443.157 99.9685C441.157 97.8169 439.639 95.388 438.603 92.682C437.567 89.976 437.061 87.2893 437.085 84.622C437.108 81.9547 437.646 79.3357 438.699 76.765C439.78 74.1953 441.336 71.9673 443.365 70.0809L464.607 50.3378L466.139 51.9858L444.897 71.729C442.486 73.9699 440.846 76.6887 439.978 79.8853C439.124 83.0677 439.109 86.3102 439.931 89.6128C440.784 92.9165 442.408 95.8578 444.805 98.4367C447.202 101.016 450.01 102.843 453.228 103.919C456.476 104.996 459.718 105.225 462.954 104.606C466.206 103.973 469.037 102.536 471.448 100.295ZM474.512 103.591L495.754 83.8483L497.285 85.4964L476.044 105.24C472.748 108.303 468.887 110.285 464.461 111.184C460.05 112.07 455.645 111.798 451.246 110.369C446.875 108.942 443.081 106.496 439.861 103.032C436.641 99.5681 434.472 95.5971 433.353 91.1191C432.264 86.6422 432.322 82.2367 433.527 77.9026C434.747 73.5543 437.006 69.8484 440.302 66.7848L461.543 47.0416L463.075 48.6897L441.834 68.4329C439.59 70.5178 437.871 72.9831 436.676 75.8287C435.482 78.6743 434.867 81.5779 434.832 84.5396C434.813 87.4872 435.368 90.4557 436.497 93.4452C437.64 96.45 439.311 99.135 441.509 101.5C443.707 103.866 446.256 105.72 449.155 107.065C452.069 108.424 454.996 109.202 457.937 109.398C460.893 109.58 463.834 109.179 466.759 108.195C469.684 107.211 472.269 105.676 474.512 103.591ZM510.391 99.5964L511.922 101.244L474.017 136.476L472.485 134.828L510.391 99.5964ZM507.327 96.3003L508.859 97.9484L470.954 133.18L469.422 131.532L507.327 96.3003ZM504.263 93.0042L505.795 94.6522L467.89 129.884L466.358 128.236L504.263 93.0042ZM501.2 89.7081L502.732 91.3561L464.826 126.587L463.295 124.939L501.2 89.7081ZM514.773 104.312L516.433 106.097L493.853 153.365L542.644 134.297L544.282 136.06L492.462 156.321L490.803 154.536L514.773 104.312ZM500.937 148.914L497.959 149.933L518.071 107.86L519.709 109.622L500.937 148.914ZM507.084 146.485L504.01 147.722L521.369 111.408L523.028 113.193L507.084 146.485ZM513.279 143.97L510.159 145.249L524.666 114.955L526.304 116.718L513.279 143.97ZM552.515 144.918L554.175 146.703L502.334 166.942L500.696 165.179L552.515 144.918ZM549.239 141.393L550.877 143.156L499.036 163.394L497.398 161.632L549.239 141.393ZM545.92 137.822L547.579 139.608L495.739 159.846L494.101 158.084L545.92 137.822ZM526.736 193.197L525.205 191.548L563.11 156.317L564.642 157.965L526.736 193.197ZM523.673 189.9L522.141 188.252L560.046 153.021L561.578 154.669L523.673 189.9ZM520.609 186.604L519.077 184.956L556.983 149.725L558.515 151.373L520.609 186.604ZM538.04 188.834L554.337 206.367L552.689 207.899L536.392 190.365L534.744 191.897L551.041 209.431L549.393 210.963L533.096 193.429L531.448 194.961L547.745 212.494L546.097 214.026L528.268 194.845L566.174 159.613L584.002 178.795L582.354 180.327L566.057 162.793L564.409 164.325L580.706 181.858L579.058 183.39L562.761 165.857L561.113 167.388L577.41 184.922L575.762 186.454L559.465 168.92L552.873 175.047L561.234 184.043L559.586 185.575L551.225 176.579L549.577 178.111L557.938 187.107L556.29 188.639L547.929 179.643L546.281 181.175L554.642 190.17L552.994 191.702L544.633 182.706L538.04 188.834ZM580.318 213.022L589.552 222.956C590.956 224.467 592.628 225.287 594.569 225.417C596.525 225.562 598.403 224.798 600.203 223.124C601.531 221.89 602.211 220.235 602.242 218.157C602.289 216.066 601.66 214.318 600.356 212.914L587.208 198.768L557.543 226.341L556.011 224.693L587.324 195.589L602.004 211.383C603.734 213.244 604.564 215.53 604.495 218.24C604.44 220.935 603.521 223.113 601.735 224.772C599.538 226.815 597.137 227.766 594.533 227.627C591.929 227.487 589.719 226.441 587.904 224.488L578.67 214.554L580.318 213.022ZM577.022 216.086L586.256 226.02C588.468 228.4 591.2 229.672 594.452 229.835C597.719 229.984 600.658 228.846 603.267 226.421C605.51 224.336 606.663 221.629 606.726 218.299C606.818 214.971 605.793 212.155 603.652 209.851L587.44 192.409L554.479 223.045L552.947 221.397L587.556 189.229L605.3 208.319C606.988 210.135 608.104 212.269 608.648 214.721C609.206 217.189 609.139 219.626 608.447 222.033C607.77 224.426 606.554 226.438 604.799 228.069C601.793 230.863 598.324 232.181 594.394 232.022C590.494 231.865 587.231 230.375 584.607 227.551L575.374 217.617L577.022 216.086ZM573.726 219.149L582.959 229.083C584.945 231.22 587.315 232.714 590.07 233.567C592.825 234.419 595.652 234.522 598.55 233.877C601.463 233.217 604.057 231.83 606.331 229.717C608.391 227.802 609.81 225.458 610.59 222.686C611.399 219.915 611.487 217.102 610.854 214.249C610.221 211.396 608.919 208.908 606.948 206.787L587.673 186.049L551.415 219.749L549.884 218.101L587.789 182.869L608.596 205.255C610.823 207.651 612.297 210.476 613.018 213.731C613.754 216.972 613.659 220.174 612.733 223.339C611.836 226.505 610.212 229.18 607.862 231.365C605.146 233.889 602.212 235.522 599.06 236.261C595.922 237.016 592.844 236.933 589.826 236.012L581.285 251.886L579.669 250.146L587.601 235.179C586.79 234.795 586.189 234.486 585.8 234.251L578.137 248.498L576.52 246.758L583.879 232.964C583.721 232.855 583.213 232.417 582.357 231.648L574.988 245.11L573.371 243.371L580.737 229.997L579.354 228.509L571.839 241.723L570.222 239.983L577.716 226.747L572.078 220.681L573.726 219.149ZM560.606 229.637L559.074 227.989L587.091 201.948L598.708 214.446C599.658 215.469 600.122 216.672 600.101 218.057C600.109 219.443 599.633 220.583 598.672 221.476C596.016 223.944 593.526 223.927 591.2 221.424L581.966 211.49L583.614 209.958L592.848 219.892C593.458 220.549 594.101 220.904 594.777 220.958C595.482 221.013 596.27 220.637 597.14 219.828C597.674 219.332 597.925 218.715 597.893 217.976C597.89 217.239 597.613 216.573 597.059 215.978L586.975 205.128L560.606 229.637Z" fill="white" fill-opacity="0.45"/>
<path d="M38.3247 143.987L36.3384 142.676L37.5892 138.1L39.7567 138.688L38.3247 143.987ZM31.3304 161.111L33.4197 162.028L31.7117 168.223L29.5212 167.656L31.3304 161.111ZM42.5816 145.491L40.4352 144.926L41.944 139.343L44.1116 139.931L42.5816 145.491ZM35.5366 162.791L37.7042 163.378L36.0484 169.354L33.858 168.788L35.5366 162.791ZM47.2972 145.332L44.8504 145.729L46.2546 140.584L48.4696 141.085L47.2972 145.332ZM39.8979 163.857L42.1896 164.073L40.4294 170.488L38.2389 169.921L39.8979 163.857ZM44.5579 122.28C41.1425 122.155 38.1835 123.256 35.6809 125.582C33.1783 127.908 31.8646 130.778 31.7397 134.194C31.6148 137.609 32.7154 140.568 35.0415 143.071C37.3675 145.573 40.2383 146.887 43.6537 147.012C47.0691 147.137 50.0281 146.036 52.5307 143.71C55.0333 141.384 56.347 138.514 56.4719 135.098C56.5968 131.683 55.4962 128.724 53.1701 126.221C50.8441 123.719 47.9733 122.405 44.5579 122.28ZM30.7704 128.653C31.5732 126.854 32.6994 125.281 34.1491 123.934C35.5988 122.586 37.2422 121.585 39.0793 120.93C40.9317 120.26 42.7854 119.96 44.6403 120.027C46.4952 120.095 48.3148 120.523 50.0992 121.311C51.8978 122.113 53.4708 123.24 54.8182 124.689C56.1656 126.139 57.1669 127.782 57.822 129.62C58.4914 131.472 58.7921 133.326 58.7243 135.18C58.6565 137.035 58.2212 138.862 57.4183 140.661C56.6308 142.445 55.5122 144.011 54.0625 145.358C52.6128 146.706 50.9618 147.714 49.1094 148.384C47.2722 149.039 45.4262 149.332 43.5713 149.264C41.7164 149.197 39.8897 148.761 38.0911 147.959C36.3067 147.171 34.7408 146.052 33.3934 144.603C32.046 143.153 31.0376 141.502 30.3683 139.65C29.7131 137.812 29.4195 135.966 29.4873 134.112C29.5551 132.257 29.9828 130.437 30.7704 128.653ZM40.3522 118.168C37.4388 118.828 34.8605 120.201 32.6173 122.286C30.3741 124.37 28.817 126.842 27.946 129.699C27.0892 132.572 26.9831 135.472 27.6279 138.4C28.2879 141.313 29.6604 143.891 31.7453 146.134C33.8303 148.378 36.3015 149.935 39.1589 150.806C42.0316 151.663 44.9247 151.761 47.8381 151.101C50.7657 150.456 53.3511 149.091 55.5943 147.006C57.8375 144.921 59.3875 142.443 60.2443 139.57C61.1153 136.713 61.2208 133.827 60.5608 130.914C59.916 127.986 58.5512 125.401 56.4662 123.158C54.3813 120.914 51.9025 119.364 49.0298 118.507C46.1723 117.636 43.2798 117.523 40.3522 118.168ZM25.8029 129.046C26.7915 125.795 28.5524 122.992 31.0855 120.637C33.6186 118.283 36.5425 116.732 39.8572 115.983C43.1719 115.234 46.4548 115.355 49.7059 116.343C52.9571 117.332 55.7599 119.093 58.1143 121.626C60.4687 124.159 62.0202 127.083 62.7687 130.397C63.5173 133.712 63.3973 136.995 62.4087 140.246C61.4201 143.497 59.6592 146.3 57.1261 148.654C54.5929 151.009 51.669 152.56 48.3544 153.309C45.0397 154.057 41.7568 153.937 38.5057 152.949C35.2545 151.96 32.4517 150.199 30.0973 147.666C27.7429 145.133 26.1914 142.209 25.4428 138.895C24.6943 135.58 24.8143 132.297 25.8029 129.046ZM36.7912 114.566C34.0873 115.544 31.6748 117.018 29.5537 118.989C27.4326 120.961 25.786 123.259 24.6139 125.885C23.4418 128.51 22.7992 131.169 22.6859 133.863C22.6021 136.557 23.0489 139.257 24.0261 141.961C25.0034 144.664 26.4777 147.077 28.4492 149.198C30.4207 151.319 32.7191 152.966 35.3444 154.138C37.9697 155.31 40.622 155.945 43.3014 156.043C46.0101 156.142 48.7165 155.703 51.4203 154.726C54.1242 153.748 56.5367 152.274 58.6579 150.303C60.779 148.331 62.4256 146.033 63.5977 143.407C64.7698 140.782 65.3977 138.122 65.4815 135.428C65.5947 132.734 65.1627 130.035 64.1854 127.331C63.2082 124.628 61.7338 122.215 59.7624 120.094C57.7909 117.973 55.4925 116.326 52.8672 115.154C50.2419 113.982 47.5748 113.346 44.8661 113.247C42.1867 113.149 39.4951 113.589 36.7912 114.566ZM21.4955 127.716C22.7182 123.707 24.8937 120.249 28.0219 117.341C31.1502 114.434 34.7582 112.517 38.8459 111.59C42.9478 110.679 47.0033 110.834 51.0125 112.057C55.0368 113.265 58.5028 115.434 61.4104 118.562C64.318 121.69 66.2275 125.305 67.1389 129.407C68.0655 133.495 67.9175 137.544 66.6948 141.553C65.4863 145.577 63.3179 149.043 60.1897 151.951C57.0614 154.858 53.4463 156.768 49.3444 157.679C45.2567 158.606 41.2006 158.465 37.1762 157.256C33.1671 156.034 29.7087 153.858 26.8012 150.73C23.8936 147.602 21.9765 143.994 21.0498 139.906C20.1384 135.804 20.287 131.741 21.4955 127.716ZM35.2206 110.352C31.9639 111.53 29.0538 113.311 26.4901 115.693C23.9265 118.076 21.9306 120.856 20.5025 124.032C19.1039 127.209 18.3448 130.432 18.2253 133.7C18.1058 136.968 18.6275 140.237 19.7904 143.508C20.9827 146.78 22.7703 149.698 25.1531 152.262C27.5359 154.825 30.3083 156.814 33.4702 158.226C36.6616 159.64 39.8914 160.407 43.1595 160.526C46.4277 160.646 49.6902 160.117 52.9468 158.938C56.2329 157.761 59.1578 155.981 61.7215 153.599C64.2851 151.216 66.2663 148.436 67.6649 145.259C69.093 142.083 69.8668 138.86 69.9863 135.592C70.1058 132.324 69.5694 129.054 68.377 125.782C67.2141 122.511 65.4413 119.594 63.0585 117.03C60.6757 114.467 57.8886 112.478 54.6972 111.064C51.5353 109.651 48.3202 108.885 45.052 108.765C41.7839 108.646 38.5067 109.175 35.2206 110.352ZM18.4575 123.117C19.9988 119.665 22.1658 116.641 24.9583 114.045C27.7509 111.45 30.9172 109.516 34.4574 108.245C38.0269 106.976 41.5783 106.405 45.1115 106.534C48.6741 106.665 52.1744 107.493 55.6122 109.019C59.0796 110.546 62.111 112.706 64.7065 115.499C67.3021 118.291 69.2277 121.465 70.4834 125.019C71.7686 128.574 72.339 132.126 72.1945 135.673C72.0795 139.221 71.2513 142.722 69.71 146.174C68.198 149.627 66.0458 152.651 63.2532 155.247C60.4607 157.842 57.2796 159.775 53.7101 161.045C50.1699 162.316 46.6185 162.886 43.0559 162.756C39.5227 162.627 36.0301 161.792 32.5781 160.25C29.1249 158.738 26.1006 156.586 23.5051 153.793C20.9095 151.001 18.9768 147.82 17.7069 144.25C16.4359 140.71 15.8579 137.166 15.9729 133.617C16.1173 130.07 16.9455 126.57 18.4575 123.117ZM89.1536 187.703L110.395 167.96L111.927 169.608L90.6854 189.351C88.3659 191.507 85.5311 192.435 82.1811 192.136C78.831 191.836 75.9646 190.405 73.5818 187.841C71.199 185.278 69.9806 182.314 69.9267 178.951C69.8728 175.588 71.0055 172.829 73.325 170.673L94.5667 150.93L96.0985 152.578L74.8568 172.321C72.9951 174.052 72.0955 176.281 72.1578 179.011C72.2344 181.756 73.2584 184.188 75.2299 186.31C77.2013 188.431 79.5459 189.622 82.2634 189.883C84.9952 190.16 87.2919 189.433 89.1536 187.703ZM92.2172 190.999L113.459 171.256L114.991 172.904L93.749 192.647C92.162 194.122 90.3316 195.198 88.2578 195.874C86.1993 196.536 84.1189 196.791 82.0164 196.641C79.9139 196.49 77.8265 195.927 75.7541 194.952C73.697 193.963 71.8742 192.614 70.2857 190.905C68.6971 189.196 67.4847 187.279 66.6484 185.156C65.8274 183.018 65.4185 180.895 65.4219 178.787C65.4253 176.679 65.8321 174.623 66.6425 172.618C67.4681 170.599 68.6744 168.852 70.2614 167.377L91.5031 147.634L93.0349 149.282L71.7932 169.025C69.9773 170.713 68.745 172.768 68.0962 175.192C67.4769 177.616 67.4971 180.086 68.157 182.601C68.831 185.132 70.0899 187.389 71.9337 189.373C73.7776 191.357 75.9297 192.77 78.3902 193.611C80.8649 194.468 83.3267 194.669 85.7757 194.213C88.2541 193.758 90.4013 192.687 92.2172 190.999ZM95.2808 194.295L116.522 174.552L118.054 176.2L96.8126 195.943C94.783 197.83 92.4403 199.211 89.7843 200.087C87.1578 200.964 84.5136 201.317 81.8517 201.145C79.1897 200.974 76.5472 200.273 73.9241 199.042C71.3009 197.811 68.9894 196.12 66.9896 193.969C64.9897 191.817 63.4717 189.388 62.4356 186.682C61.3994 183.976 60.8933 181.289 60.9171 178.622C60.9409 175.955 61.4789 173.336 62.5311 170.765C63.6127 168.195 65.1683 165.967 67.1978 164.081L88.4395 144.338L89.9713 145.986L68.7296 165.729C66.3186 167.97 64.6787 170.689 63.81 173.885C62.9566 177.068 62.9413 180.31 63.764 183.613C64.6161 186.917 66.2406 189.858 68.6376 192.437C71.0346 195.016 73.8423 196.843 77.0608 197.919C80.3087 198.996 83.5508 199.225 86.787 198.606C90.0385 197.973 92.8697 196.536 95.2808 194.295ZM98.3444 197.591L119.586 177.848L121.118 179.496L99.8762 199.24C96.5801 202.303 92.7191 204.285 88.2933 205.184C83.8828 206.07 79.4777 205.798 75.0781 204.369C70.7079 202.942 66.913 200.496 63.6934 197.032C60.4738 193.568 58.3046 189.597 57.1859 185.119C56.0966 180.642 56.1545 176.237 57.3595 171.903C58.5799 167.554 60.8381 163.848 64.1342 160.785L85.3759 141.042L86.9077 142.69L65.666 162.433C63.4229 164.518 61.7038 166.983 60.5089 169.829C59.314 172.674 58.6993 175.578 58.6647 178.54C58.6454 181.487 59.2002 184.456 60.3292 187.445C61.4723 190.45 63.1431 193.135 65.3415 195.5C67.5399 197.866 70.0887 199.72 72.9878 201.065C75.901 202.424 78.8282 203.202 81.7693 203.398C84.7256 203.58 87.6664 203.179 90.5917 202.195C93.517 201.211 96.1012 199.676 98.3444 197.591ZM134.223 193.596L135.755 195.244L97.8496 230.476L96.3178 228.828L134.223 193.596ZM131.16 190.3L132.691 191.948L94.786 227.18L93.2542 225.532L131.16 190.3ZM128.096 187.004L129.628 188.652L91.7224 223.884L90.1906 222.236L128.096 187.004ZM125.032 183.708L126.564 185.356L88.6588 220.587L87.1271 218.939L125.032 183.708ZM138.606 198.312L140.265 200.097L117.686 247.365L166.476 228.297L168.114 230.06L116.295 250.321L114.636 248.536L138.606 198.312ZM124.769 242.914L121.791 243.933L141.903 201.86L143.542 203.622L124.769 242.914ZM130.917 240.485L127.842 241.722L145.201 205.408L146.861 207.193L130.917 240.485ZM137.112 237.97L133.991 239.249L148.499 208.955L150.137 210.718L137.112 237.97ZM176.348 238.918L178.007 240.703L126.167 260.942L124.528 259.179L176.348 238.918ZM173.071 235.393L174.709 237.156L122.869 257.394L121.231 255.632L173.071 235.393ZM169.752 231.822L171.412 233.608L119.571 253.846L117.933 252.084L169.752 231.822ZM150.569 287.197L149.037 285.548L186.943 250.317L188.474 251.965L150.569 287.197ZM147.505 283.9L145.974 282.252L183.879 247.021L185.411 248.669L147.505 283.9ZM144.442 280.604L142.91 278.956L180.815 243.725L182.347 245.373L144.442 280.604ZM161.873 282.834L178.169 300.367L176.521 301.899L160.225 284.365L158.577 285.897L174.873 303.431L173.225 304.963L156.929 287.429L155.281 288.961L171.577 306.494L169.929 308.026L152.101 288.845L190.006 253.613L207.835 272.795L206.186 274.327L189.89 256.793L188.242 258.325L204.538 275.858L202.89 277.39L186.594 259.857L184.946 261.388L201.242 278.922L199.594 280.454L183.298 262.92L176.705 269.047L185.066 278.043L183.418 279.575L175.057 270.579L173.409 272.111L181.77 281.107L180.122 282.639L171.761 273.643L170.113 275.175L178.474 284.17L176.826 285.702L168.465 276.706L161.873 282.834ZM204.151 307.022L213.384 316.956C214.788 318.467 216.461 319.287 218.402 319.417C220.357 319.562 222.235 318.798 224.036 317.124C225.364 315.89 226.043 314.235 226.075 312.157C226.122 310.066 225.493 308.318 224.188 306.914L211.04 292.768L181.375 320.341L179.843 318.693L211.156 289.589L225.836 305.383C227.567 307.244 228.397 309.53 228.327 312.24C228.273 314.935 227.353 317.113 225.568 318.772C223.37 320.815 220.97 321.766 218.365 321.627C215.761 321.487 213.552 320.441 211.736 318.488L202.503 308.554L204.151 307.022ZM200.855 310.086L210.088 320.02C212.301 322.4 215.033 323.672 218.285 323.835C221.552 323.984 224.49 322.846 227.099 320.421C229.343 318.336 230.496 315.629 230.558 312.299C230.651 308.971 229.626 306.155 227.484 303.851L211.273 286.409L178.312 317.045L176.78 315.397L211.389 283.229L229.132 302.319C230.82 304.135 231.936 306.269 232.48 308.721C233.039 311.189 232.972 313.626 232.279 316.033C231.602 318.426 230.386 320.438 228.631 322.069C225.625 324.863 222.157 326.181 218.227 326.022C214.326 325.865 211.064 324.375 208.44 321.551L199.207 311.617L200.855 310.086ZM197.559 313.149L206.792 323.083C208.778 325.22 211.148 326.714 213.903 327.567C216.658 328.419 219.484 328.522 222.382 327.877C225.296 327.217 227.889 325.83 230.163 323.717C232.223 321.802 233.643 319.458 234.422 316.686C235.231 313.915 235.319 311.102 234.687 308.249C234.054 305.396 232.752 302.908 230.78 300.787L211.505 280.049L175.248 313.749L173.716 312.101L211.621 276.869L232.428 299.255C234.655 301.651 236.129 304.476 236.85 307.731C237.587 310.972 237.492 314.174 236.565 317.339C235.668 320.505 234.045 323.18 231.695 325.365C228.979 327.889 226.044 329.522 222.892 330.261C219.754 331.016 216.676 330.933 213.659 330.012L205.118 345.886L203.501 344.146L211.434 329.179C210.622 328.795 210.022 328.486 209.632 328.251L201.969 342.498L200.352 340.758L207.711 326.964C207.553 326.855 207.046 326.417 206.19 325.648L198.821 339.11L197.204 337.371L204.569 323.997L203.187 322.509L195.672 335.723L194.055 333.983L201.548 320.747L195.911 314.681L197.559 313.149ZM184.439 323.637L182.907 321.989L210.924 295.948L222.54 308.446C223.49 309.469 223.955 310.672 223.934 312.057C223.942 313.443 223.465 314.583 222.504 315.476C219.849 317.944 217.358 317.927 215.032 315.424L205.799 305.49L207.447 303.958L216.68 313.892C217.29 314.549 217.933 314.904 218.609 314.958C219.315 315.013 220.102 314.637 220.972 313.828C221.506 313.332 221.757 312.715 221.725 311.976C221.723 311.239 221.445 310.573 220.892 309.978L210.808 299.128L184.439 323.637Z" fill="white" fill-opacity="0.45"/>
</svg>
