<svg width="446" height="58" viewBox="0 0 446 58" fill="none" xmlns="http://www.w3.org/2000/svg">
<ellipse cx="223" cy="30" rx="27" ry="28" fill="#2E2E2E"/>
<ellipse cx="223" cy="30" rx="27" ry="28" fill="white"/>
<ellipse cx="222.5" cy="30.5" rx="17.5" ry="18.5" fill="#F9F9F9"/>
<ellipse cx="222.5" cy="30.5" rx="17.5" ry="18.5" fill="#2E2E2E"/>
<rect width="30.3302" height="11.3432" rx="5.67161" transform="matrix(0.660155 0.751129 -0.73361 0.67957 222.322 21.9453)" fill="#2E2E2E"/>
<rect width="30.3302" height="11.3432" rx="5.67161" transform="matrix(0.660155 0.751129 -0.73361 0.67957 222.322 21.9453)" fill="#FFFCFC"/>
<path d="M442 22.16V24C441.998 28.3128 440.601 32.5093 438.019 35.9636C435.436 39.4179 431.807 41.9449 427.671 43.1678C423.535 44.3906 419.115 44.2438 415.069 42.7491C411.023 41.2545 407.569 38.4922 405.222 34.8741C402.875 31.256 401.76 26.9761 402.043 22.6726C402.327 18.3691 403.994 14.2726 406.797 10.9941C409.599 7.71561 413.386 5.43074 417.592 4.48026C421.799 3.52979 426.201 3.96465 430.14 5.71997M442 7.99997L422 28.02L416 22.02" stroke="white" stroke-width="4" stroke-linecap="round" stroke-linejoin="round"/>
<path d="M170.707 30.7071C171.098 30.3166 171.098 29.6834 170.707 29.2929L164.343 22.9289C163.953 22.5384 163.319 22.5384 162.929 22.9289C162.538 23.3195 162.538 23.9526 162.929 24.3431L168.586 30L162.929 35.6569C162.538 36.0474 162.538 36.6805 162.929 37.0711C163.319 37.4616 163.953 37.4616 164.343 37.0711L170.707 30.7071ZM61 30V31H170V30V29H61V30Z" fill="white"/>
<path d="M376.707 30.7071C377.098 30.3166 377.098 29.6834 376.707 29.2929L370.343 22.9289C369.953 22.5384 369.319 22.5384 368.929 22.9289C368.538 23.3195 368.538 23.9526 368.929 24.3431L374.586 30L368.929 35.6569C368.538 36.0474 368.538 36.6805 368.929 37.0711C369.319 37.4616 369.953 37.4616 370.343 37.0711L376.707 30.7071ZM271 30V31H376V30V29H271V30Z" fill="white"/>
<path d="M24 38H24.02M14 6H34C36.2091 6 38 7.79086 38 10V42C38 44.2091 36.2091 46 34 46H14C11.7909 46 10 44.2091 10 42V10C10 7.79086 11.7909 6 14 6Z" stroke="white" stroke-width="4" stroke-linecap="round" stroke-linejoin="round"/>
</svg>
