<svg width="242" height="212" viewBox="0 0 242 212" fill="none" xmlns="http://www.w3.org/2000/svg">
<ellipse cx="27" cy="28" rx="27" ry="28" fill="#2E2E2E"/>
<ellipse cx="27" cy="28" rx="27" ry="28" fill="white"/>
<ellipse cx="26.5" cy="28.5" rx="17.5" ry="18.5" fill="#F9F9F9"/>
<ellipse cx="26.5" cy="28.5" rx="17.5" ry="18.5" fill="#2E2E2E"/>
<rect width="30.3302" height="11.3432" rx="5.67161" transform="matrix(0.660155 0.751129 -0.73361 0.67957 26.3215 19.9452)" fill="#2E2E2E"/>
<rect width="30.3302" height="11.3432" rx="5.67161" transform="matrix(0.660155 0.751129 -0.73361 0.67957 26.3215 19.9452)" fill="#FFFCFC"/>
<ellipse cx="27" cy="184" rx="27" ry="28" fill="#2E2E2E"/>
<ellipse cx="27" cy="184" rx="27" ry="28" fill="white"/>
<ellipse cx="26.5" cy="184.5" rx="17.5" ry="18.5" fill="#F9F9F9"/>
<ellipse cx="26.5" cy="184.5" rx="17.5" ry="18.5" fill="#2E2E2E"/>
<rect width="30.3302" height="11.3432" rx="5.67161" transform="matrix(0.660155 0.751129 -0.73361 0.67957 26.3215 175.945)" fill="#2E2E2E"/>
<rect width="30.3302" height="11.3432" rx="5.67161" transform="matrix(0.660155 0.751129 -0.73361 0.67957 26.3215 175.945)" fill="#FFFCFC"/>
<ellipse cx="27" cy="28" rx="27" ry="28" fill="#2E2E2E"/>
<ellipse cx="27" cy="28" rx="27" ry="28" fill="white"/>
<ellipse cx="26.5" cy="28.5" rx="17.5" ry="18.5" fill="#F9F9F9"/>
<ellipse cx="26.5" cy="28.5" rx="17.5" ry="18.5" fill="#2E2E2E"/>
<rect width="30.3302" height="11.3432" rx="5.67161" transform="matrix(0.660155 0.751129 -0.73361 0.67957 26.3215 19.9452)" fill="#2E2E2E"/>
<rect width="30.3302" height="11.3432" rx="5.67161" transform="matrix(0.660155 0.751129 -0.73361 0.67957 26.3215 19.9452)" fill="#FFFCFC"/>
<ellipse cx="27" cy="184" rx="27" ry="28" fill="#2E2E2E"/>
<ellipse cx="27" cy="184" rx="27" ry="28" fill="white"/>
<ellipse cx="26.5" cy="184.5" rx="17.5" ry="18.5" fill="#F9F9F9"/>
<ellipse cx="26.5" cy="184.5" rx="17.5" ry="18.5" fill="#2E2E2E"/>
<rect width="30.3302" height="11.3432" rx="5.67161" transform="matrix(0.660155 0.751129 -0.73361 0.67957 26.3215 175.945)" fill="#2E2E2E"/>
<rect width="30.3302" height="11.3432" rx="5.67161" transform="matrix(0.660155 0.751129 -0.73361 0.67957 26.3215 175.945)" fill="#FFFCFC"/>
<ellipse cx="27" cy="106" rx="27" ry="28" fill="#2E2E2E"/>
<ellipse cx="27" cy="106" rx="27" ry="28" fill="white"/>
<ellipse cx="26.5" cy="106.5" rx="17.5" ry="18.5" fill="#F9F9F9"/>
<ellipse cx="26.5" cy="106.5" rx="17.5" ry="18.5" fill="#2E2E2E"/>
<rect width="30.3302" height="11.3432" rx="5.67161" transform="matrix(0.660155 0.751129 -0.73361 0.67957 26.3215 97.9452)" fill="#2E2E2E"/>
<rect width="30.3302" height="11.3432" rx="5.67161" transform="matrix(0.660155 0.751129 -0.73361 0.67957 26.3215 97.9452)" fill="#FFFCFC"/>
<ellipse cx="121" cy="28" rx="27" ry="28" fill="#2E2E2E"/>
<ellipse cx="121" cy="28" rx="27" ry="28" fill="white"/>
<ellipse cx="120.5" cy="28.5" rx="17.5" ry="18.5" fill="#F9F9F9"/>
<ellipse cx="120.5" cy="28.5" rx="17.5" ry="18.5" fill="#2E2E2E"/>
<rect width="30.3302" height="11.3432" rx="5.67161" transform="matrix(0.660155 0.751129 -0.73361 0.67957 120.322 19.9452)" fill="#2E2E2E"/>
<rect width="30.3302" height="11.3432" rx="5.67161" transform="matrix(0.660155 0.751129 -0.73361 0.67957 120.322 19.9452)" fill="#FFFCFC"/>
<ellipse cx="121" cy="184" rx="27" ry="28" fill="#2E2E2E"/>
<ellipse cx="121" cy="184" rx="27" ry="28" fill="white"/>
<ellipse cx="120.5" cy="184.5" rx="17.5" ry="18.5" fill="#F9F9F9"/>
<ellipse cx="120.5" cy="184.5" rx="17.5" ry="18.5" fill="#2E2E2E"/>
<rect width="30.3302" height="11.3432" rx="5.67161" transform="matrix(0.660155 0.751129 -0.73361 0.67957 120.322 175.945)" fill="#2E2E2E"/>
<rect width="30.3302" height="11.3432" rx="5.67161" transform="matrix(0.660155 0.751129 -0.73361 0.67957 120.322 175.945)" fill="#FFFCFC"/>
<ellipse cx="121" cy="28" rx="27" ry="28" fill="#2E2E2E"/>
<ellipse cx="121" cy="28" rx="27" ry="28" fill="white"/>
<ellipse cx="120.5" cy="28.5" rx="17.5" ry="18.5" fill="#F9F9F9"/>
<ellipse cx="120.5" cy="28.5" rx="17.5" ry="18.5" fill="#2E2E2E"/>
<rect width="30.3302" height="11.3432" rx="5.67161" transform="matrix(0.660155 0.751129 -0.73361 0.67957 120.322 19.9452)" fill="#2E2E2E"/>
<rect width="30.3302" height="11.3432" rx="5.67161" transform="matrix(0.660155 0.751129 -0.73361 0.67957 120.322 19.9452)" fill="#FFFCFC"/>
<ellipse cx="121" cy="184" rx="27" ry="28" fill="#2E2E2E"/>
<ellipse cx="121" cy="184" rx="27" ry="28" fill="white"/>
<ellipse cx="120.5" cy="184.5" rx="17.5" ry="18.5" fill="#F9F9F9"/>
<ellipse cx="120.5" cy="184.5" rx="17.5" ry="18.5" fill="#2E2E2E"/>
<rect width="30.3302" height="11.3432" rx="5.67161" transform="matrix(0.660155 0.751129 -0.73361 0.67957 120.322 175.945)" fill="#2E2E2E"/>
<rect width="30.3302" height="11.3432" rx="5.67161" transform="matrix(0.660155 0.751129 -0.73361 0.67957 120.322 175.945)" fill="#FFFCFC"/>
<ellipse cx="121" cy="106" rx="27" ry="28" fill="#2E2E2E"/>
<ellipse cx="121" cy="106" rx="27" ry="28" fill="white"/>
<ellipse cx="120.5" cy="106.5" rx="17.5" ry="18.5" fill="#F9F9F9"/>
<ellipse cx="120.5" cy="106.5" rx="17.5" ry="18.5" fill="#2E2E2E"/>
<rect width="30.3302" height="11.3432" rx="5.67161" transform="matrix(0.660155 0.751129 -0.73361 0.67957 120.322 97.9452)" fill="#2E2E2E"/>
<rect width="30.3302" height="11.3432" rx="5.67161" transform="matrix(0.660155 0.751129 -0.73361 0.67957 120.322 97.9452)" fill="#FFFCFC"/>
<ellipse cx="215" cy="28" rx="27" ry="28" fill="#2E2E2E"/>
<ellipse cx="215" cy="28" rx="27" ry="28" fill="white"/>
<ellipse cx="214.5" cy="28.5" rx="17.5" ry="18.5" fill="#F9F9F9"/>
<ellipse cx="214.5" cy="28.5" rx="17.5" ry="18.5" fill="#2E2E2E"/>
<rect width="30.3302" height="11.3432" rx="5.67161" transform="matrix(0.660155 0.751129 -0.73361 0.67957 214.322 19.9452)" fill="#2E2E2E"/>
<rect width="30.3302" height="11.3432" rx="5.67161" transform="matrix(0.660155 0.751129 -0.73361 0.67957 214.322 19.9452)" fill="#FFFCFC"/>
<ellipse cx="215" cy="184" rx="27" ry="28" fill="#2E2E2E"/>
<ellipse cx="215" cy="184" rx="27" ry="28" fill="white"/>
<ellipse cx="214.5" cy="184.5" rx="17.5" ry="18.5" fill="#F9F9F9"/>
<ellipse cx="214.5" cy="184.5" rx="17.5" ry="18.5" fill="#2E2E2E"/>
<rect width="30.3302" height="11.3432" rx="5.67161" transform="matrix(0.660155 0.751129 -0.73361 0.67957 214.322 175.945)" fill="#2E2E2E"/>
<rect width="30.3302" height="11.3432" rx="5.67161" transform="matrix(0.660155 0.751129 -0.73361 0.67957 214.322 175.945)" fill="#FFFCFC"/>
<ellipse cx="215" cy="28" rx="27" ry="28" fill="#2E2E2E"/>
<ellipse cx="215" cy="28" rx="27" ry="28" fill="white"/>
<ellipse cx="214.5" cy="28.5" rx="17.5" ry="18.5" fill="#F9F9F9"/>
<ellipse cx="214.5" cy="28.5" rx="17.5" ry="18.5" fill="#2E2E2E"/>
<rect width="30.3302" height="11.3432" rx="5.67161" transform="matrix(0.660155 0.751129 -0.73361 0.67957 214.322 19.9452)" fill="#2E2E2E"/>
<rect width="30.3302" height="11.3432" rx="5.67161" transform="matrix(0.660155 0.751129 -0.73361 0.67957 214.322 19.9452)" fill="#FFFCFC"/>
<ellipse cx="215" cy="184" rx="27" ry="28" fill="#2E2E2E"/>
<ellipse cx="215" cy="184" rx="27" ry="28" fill="white"/>
<ellipse cx="214.5" cy="184.5" rx="17.5" ry="18.5" fill="#F9F9F9"/>
<ellipse cx="214.5" cy="184.5" rx="17.5" ry="18.5" fill="#2E2E2E"/>
<rect width="30.3302" height="11.3432" rx="5.67161" transform="matrix(0.660155 0.751129 -0.73361 0.67957 214.322 175.945)" fill="#2E2E2E"/>
<rect width="30.3302" height="11.3432" rx="5.67161" transform="matrix(0.660155 0.751129 -0.73361 0.67957 214.322 175.945)" fill="#FFFCFC"/>
<ellipse cx="215" cy="106" rx="27" ry="28" fill="#2E2E2E"/>
<ellipse cx="215" cy="106" rx="27" ry="28" fill="white"/>
<ellipse cx="214.5" cy="106.5" rx="17.5" ry="18.5" fill="#F9F9F9"/>
<ellipse cx="214.5" cy="106.5" rx="17.5" ry="18.5" fill="#2E2E2E"/>
<rect width="30.3302" height="11.3432" rx="5.67161" transform="matrix(0.660155 0.751129 -0.73361 0.67957 214.322 97.9452)" fill="#2E2E2E"/>
<rect width="30.3302" height="11.3432" rx="5.67161" transform="matrix(0.660155 0.751129 -0.73361 0.67957 214.322 97.9452)" fill="#FFFCFC"/>
</svg>
